<svg xmlns="http://www.w3.org/2000/svg" xmlns:xlink="http://www.w3.org/1999/xlink" xmlns:inkscape="http://www.inkscape.org/namespaces/inkscape" version="1.1" width="1694.667" height="1092" viewBox="0 0 1694.667 1092">
<defs>
<clipPath id="clip_0">
<path transform="matrix(1,0,0,-1,0,1092)" d="M573.5666 616.4502H999.1548V705.7339H573.5666Z"/>
</clipPath>
<clipPath id="clip_1">
<path transform="matrix(1,0,0,-1,0,1092)" d="M574.5666 617.4502H998.1548V704.7339H574.5666Z"/>
</clipPath>
<clipPath id="clip_2">
<path transform="matrix(1,0,0,-1,0,1092)" d="M783.8607 546.4346V619.4346H788.8607V546.4346Z"/>
</clipPath>
<clipPath id="clip_3">
<path transform="matrix(1,0,0,-1,0,1092)" d="M0 0H1694.667V1092H0Z"/>
</clipPath>
<clipPath id="clip_4">
<path transform="matrix(1,0,0,-1,0,1092)" d="M372.5751 434.5044H734.0929V517.53787H372.5751Z"/>
</clipPath>
<clipPath id="clip_5">
<path transform="matrix(1,0,0,-1,0,1092)" d="M373.5751 435.5044H733.0929V516.53787H373.5751Z"/>
</clipPath>
<clipPath id="clip_6">
<path transform="matrix(1,0,0,-1,0,1092)" d="M906.8532 434.5044H1268.371V517.53787H906.8532Z"/>
</clipPath>
<clipPath id="clip_7">
<path transform="matrix(1,0,0,-1,0,1092)" d="M907.8532 435.5044H1267.371V516.53787H907.8532Z"/>
</clipPath>
<clipPath id="clip_8">
<path transform="matrix(1,0,0,-1,0,1092)" d="M787.3608 545.4888H540.9323V550.4888H787.3608Z"/>
</clipPath>
<clipPath id="clip_9">
<path transform="matrix(1,0,0,-1,0,1092)" d="M0 0H1694.667V1092H0Z"/>
</clipPath>
<clipPath id="clip_10">
<path transform="matrix(1,0,0,-1,0,1092)" d="M1089.021 545.4888H784.1673V550.4888H1089.021Z"/>
</clipPath>
<clipPath id="clip_11">
<path transform="matrix(1,0,0,-1,0,1092)" d="M0 0H1694.667V1092H0Z"/>
</clipPath>
<clipPath id="clip_12">
<path transform="matrix(1,0,0,-1,0,1092)" d="M539.4323 508.4888V550.4888H544.4323V508.4888Z"/>
</clipPath>
<clipPath id="clip_13">
<path transform="matrix(1,0,0,-1,0,1092)" d="M0 0H1694.667V1092H0Z"/>
</clipPath>
<clipPath id="clip_14">
<path transform="matrix(1,0,0,-1,0,1092)" d="M1085.112 508.4888V550.4888H1090.112V508.4888Z"/>
</clipPath>
<clipPath id="clip_15">
<path transform="matrix(1,0,0,-1,0,1092)" d="M0 0H1694.667V1092H0Z"/>
</clipPath>
<clipPath id="clip_16">
<path transform="matrix(1,0,0,-1,0,1092)" d="M539.4324 403.4347V463.3119H544.4324V403.4347Z"/>
</clipPath>
<clipPath id="clip_17">
<path transform="matrix(1,0,0,-1,0,1092)" d="M0 0H1694.667V1092H0Z"/>
</clipPath>
<clipPath id="clip_18">
<path transform="matrix(1,0,0,-1,0,1092)" d="M538.6122 402.2642H368.9588V407.2642H538.6122Z"/>
</clipPath>
<clipPath id="clip_19">
<path transform="matrix(1,0,0,-1,0,1092)" d="M0 0H1694.667V1092H0Z"/>
</clipPath>
<clipPath id="clip_20">
<path transform="matrix(1,0,0,-1,0,1092)" d="M688.7094 402.2642H535.4188V407.2642H688.7094Z"/>
</clipPath>
<clipPath id="clip_21">
<path transform="matrix(1,0,0,-1,0,1092)" d="M0 0H1694.667V1092H0Z"/>
</clipPath>
<clipPath id="clip_22">
<path transform="matrix(1,0,0,-1,0,1092)" d="M367.4588 365.2642V407.2642H372.4588V365.2642Z"/>
</clipPath>
<clipPath id="clip_23">
<path transform="matrix(1,0,0,-1,0,1092)" d="M0 0H1694.667V1092H0Z"/>
</clipPath>
<clipPath id="clip_24">
<path transform="matrix(1,0,0,-1,0,1092)" d="M685.4757 365.2642V407.2642H690.4757V365.2642Z"/>
</clipPath>
<clipPath id="clip_25">
<path transform="matrix(1,0,0,-1,0,1092)" d="M0 0H1694.667V1092H0Z"/>
</clipPath>
<clipPath id="clip_26">
<path transform="matrix(1,0,0,-1,0,1092)" d="M235.4078 308.5131H504.5098V368.39033H235.4078Z"/>
</clipPath>
<clipPath id="clip_27">
<path transform="matrix(1,0,0,-1,0,1092)" d="M237.9078 311.0131H502.0098V365.89033H237.9078Z"/>
</clipPath>
<clipPath id="clip_28">
<path transform="matrix(1,0,0,-1,0,1092)" d="M557.6146 308.5131H826.7166V368.39033H557.6146Z"/>
</clipPath>
<clipPath id="clip_29">
<path transform="matrix(1,0,0,-1,0,1092)" d="M560.1146 311.0131H824.2166V365.89033H560.1146Z"/>
</clipPath>
<clipPath id="clip_30">
<path transform="matrix(1,0,0,-1,0,1092)" d="M1138.248 405.5639V442.5274H1143.248V405.5639Z"/>
</clipPath>
<clipPath id="clip_31">
<path transform="matrix(1,0,0,-1,0,1092)" d="M0 0H1694.667V1092H0Z"/>
</clipPath>
<clipPath id="clip_32">
<path transform="matrix(1,0,0,-1,0,1092)" d="M1125.748 402.2642H1015.845V407.2642H1125.748Z"/>
</clipPath>
<clipPath id="clip_33">
<path transform="matrix(1,0,0,-1,0,1092)" d="M0 0H1694.667V1092H0Z"/>
</clipPath>
<clipPath id="clip_34">
<path transform="matrix(1,0,0,-1,0,1092)" d="M1346.995 402.2642H1122.555V407.2642H1346.995Z"/>
</clipPath>
<clipPath id="clip_35">
<path transform="matrix(1,0,0,-1,0,1092)" d="M0 0H1694.667V1092H0Z"/>
</clipPath>
<clipPath id="clip_36">
<path transform="matrix(1,0,0,-1,0,1092)" d="M1013.595 365.2641V407.2642H1018.595V365.2641Z"/>
</clipPath>
<clipPath id="clip_37">
<path transform="matrix(1,0,0,-1,0,1092)" d="M0 0H1694.667V1092H0Z"/>
</clipPath>
<clipPath id="clip_38">
<path transform="matrix(1,0,0,-1,0,1092)" d="M1343.801 365.2642V407.2642H1348.801V365.2642Z"/>
</clipPath>
<clipPath id="clip_39">
<path transform="matrix(1,0,0,-1,0,1092)" d="M0 0H1694.667V1092H0Z"/>
</clipPath>
<clipPath id="clip_40">
<path transform="matrix(1,0,0,-1,0,1092)" d="M884.6825 308.5131H1153.7844V368.39033H884.6825Z"/>
</clipPath>
<clipPath id="clip_41">
<path transform="matrix(1,0,0,-1,0,1092)" d="M887.1825 311.0131H1151.2844V365.89033H887.1825Z"/>
</clipPath>
<clipPath id="clip_42">
<path transform="matrix(1,0,0,-1,0,1092)" d="M1211.75 308.6657H1480.852V368.54295H1211.75Z"/>
</clipPath>
<clipPath id="clip_43">
<path transform="matrix(1,0,0,-1,0,1092)" d="M1214.25 311.1657H1478.352V366.04295H1214.25Z"/>
</clipPath>
<clipPath id="clip_44">
<path transform="matrix(1,0,0,-1,0,1092)" d="M1343.801 275.6791V312.6427H1348.801V275.6791Z"/>
</clipPath>
<clipPath id="clip_45">
<path transform="matrix(1,0,0,-1,0,1092)" d="M0 0H1694.667V1092H0Z"/>
</clipPath>
<clipPath id="clip_46">
<path transform="matrix(1,0,0,-1,0,1092)" d="M1211.75 220.6657H1480.852V280.54295H1211.75Z"/>
</clipPath>
<clipPath id="clip_47">
<path transform="matrix(1,0,0,-1,0,1092)" d="M1214.25 223.1657H1478.352V278.04295H1214.25Z"/>
</clipPath>
</defs>
<g clip-path="url(#clip_0)">
<path transform="matrix(1,0,0,-1,0,1092)" d="M641.2804 704.7339H931.441C950.4402 704.7339 961.8397 704.7339 969.4393 702.102 981.5616 697.6898 991.1107 688.1407 995.5229 676.0184 997.2641 671.2346 998.1548 666.1829 998.1548 661.092 998.1548 656.0012 997.2641 650.9495 995.5229 646.1657 991.1107 634.0434 981.5616 624.4943 969.4393 620.0821 961.8397 617.4502 950.4402 617.4502 931.441 617.4502H641.2804C622.2812 617.4502 610.8817 617.4502 603.2821 620.0821 591.1598 624.4943 581.6107 634.0434 577.1986 646.1657 575.4574 650.9495 574.5666 656.0012 574.5666 661.092 574.5666 666.1829 575.4574 671.2346 577.1986 676.0184 581.6107 688.1407 591.1598 697.6898 603.2821 702.102 610.8817 704.7339 622.2812 704.7339 641.2804 704.7339ZM641.2804 704.7339" fill="#d0613a"/>
</g>
<g clip-path="url(#clip_1)">
<text fill="#ffffff" xml:space="preserve" transform="matrix(1 0 -0 1 634.6423 427.80439)" font-size="29.28" font-family="Futura"><tspan y="0" x="0 17.07024 31.02509 48.58138 55.8721 72.0698 83.95162 92.987438 110.58765 119.280879 128.31668 151.47716 167.67487 185.23114 197.11296 213.06763 223.81925 240.01694 263.17744 279.37513 295.42936">Scales of measurement</tspan></text>
</g>
<g clip-path="url(#clip_2)">
<g clip-path="url(#clip_3)">
<path transform="matrix(0,-1,1,0,786.3607,544.5654)" stroke-width="3" stroke-linecap="butt" stroke-miterlimit="4" stroke-linejoin="miter" fill="none" stroke="#d0613a" d="M0 0H71"/>
</g>
</g>
<g clip-path="url(#clip_4)">
<path transform="matrix(1,0,0,-1,0,1092)" d="M433.3337 516.5378H673.3343C690.3884 516.5378 700.6209 516.5378 707.4425 514.1409 718.2495 510.2075 726.7626 501.6944 730.696 490.8874 732.3134 486.6927 733.0929 480.7793 733.0929 476.0211 733.0929 471.2629 732.3134 465.3495 730.696 461.1548 726.7626 450.3478 718.2495 441.8347 707.4425 437.9013 700.6209 435.5044 690.3884 435.5044 673.3343 435.5044H433.3337C416.2796 435.5044 406.0471 435.5044 399.2255 437.9013 388.4185 441.8347 379.9054 450.3478 375.972 461.1548 374.3546 465.3495 373.5751 471.2629 373.5751 476.0211 373.5751 480.7793 374.3546 486.6927 375.972 490.8874 379.9054 501.6944 388.4185 510.2075 399.2255 514.1409 406.0471 516.5378 416.2796 516.5378 433.3337 516.5378ZM433.3337 516.5378" fill="#d0613a"/>
</g>
<g clip-path="url(#clip_5)">
<text fill="#ffffff" xml:space="preserve" transform="matrix(1 0 -0 1 470.0576 627.26)" font-size="30" font-family="Futura"><tspan y="0" x="0 26.808003 43.155008 61.143007 77.59201 85.794017 93.264019 101.73002 119.71802 127.92002 135.39002 149.95201">Quantitative</tspan></text>
</g>
<g clip-path="url(#clip_6)">
<path transform="matrix(1,0,0,-1,0,1092)" d="M967.6119 516.5378H1207.612C1224.667 516.5378 1234.899 516.5378 1241.721 514.1409 1252.528 510.2075 1261.041 501.6944 1264.974 490.8874 1266.592 486.6927 1267.371 480.7793 1267.371 476.0211 1267.371 471.2629 1266.592 465.3495 1264.974 461.1548 1261.041 450.3478 1252.528 441.8347 1241.721 437.9013 1234.899 435.5044 1224.667 435.5044 1207.612 435.5044H967.6119C950.5578 435.5044 940.3253 435.5044 933.5036 437.9013 922.6966 441.8347 914.1836 450.3478 910.2501 461.1548 908.6328 465.3495 907.8532 471.2629 907.8532 476.0211 907.8532 480.7793 908.6328 486.6927 910.2501 490.8874 914.1836 501.6944 922.6966 510.2075 933.5036 514.1409 940.3253 516.5378 950.5578 516.5378 967.6119 516.5378ZM967.6119 516.5378" fill="#d0613a"/>
</g>
<g clip-path="url(#clip_7)">
<text fill="#ffffff" xml:space="preserve" transform="matrix(1 0 -0 1 1008.13 627.26)" font-size="30" font-family="Futura"><tspan y="0" x="0 21.021 39.009 47.475 64.071 82.029 100.062 111.738 119.208 133.50601 151.49402">Categorical</tspan></text>
</g>
<g clip-path="url(#clip_8)">
<g clip-path="url(#clip_9)">
<path transform="matrix(-1,-0,0,-1,786.3608,544.0112)" stroke-width="3" stroke-linecap="butt" stroke-miterlimit="4" stroke-linejoin="miter" fill="none" stroke="#d0613a" d="M0 0H244.4284"/>
</g>
</g>
<g clip-path="url(#clip_10)">
<g clip-path="url(#clip_11)">
<path transform="matrix(-1,-0,0,-1,1088.021,544.0112)" stroke-width="3" stroke-linecap="butt" stroke-miterlimit="4" stroke-linejoin="miter" fill="none" stroke="#d0613a" d="M0 0H302.8533"/>
</g>
</g>
<g clip-path="url(#clip_12)">
<g clip-path="url(#clip_13)">
<path transform="matrix(0,-1,1,0,541.9323,582.5112)" stroke-width="3" stroke-linecap="butt" stroke-miterlimit="4" stroke-linejoin="miter" fill="none" stroke="#d0613a" d="M0 0H40"/>
</g>
</g>
<g clip-path="url(#clip_14)">
<g clip-path="url(#clip_15)">
<path transform="matrix(0,-1,1,0,1087.612,582.5112)" stroke-width="3" stroke-linecap="butt" stroke-miterlimit="4" stroke-linejoin="miter" fill="none" stroke="#d0613a" d="M0 0H40"/>
</g>
</g>
<g clip-path="url(#clip_16)">
<g clip-path="url(#clip_17)">
<path transform="matrix(0,-1,1,0,541.9324,687.5653)" stroke-width="3" stroke-linecap="butt" stroke-miterlimit="4" stroke-linejoin="miter" fill="none" stroke="#d0613a" d="M0 0H57.87724"/>
</g>
</g>
<g clip-path="url(#clip_18)">
<g clip-path="url(#clip_19)">
<path transform="matrix(-1,-0,0,-1,537.6122,687.23587)" stroke-width="3" stroke-linecap="butt" stroke-miterlimit="4" stroke-linejoin="miter" fill="none" stroke="#d0613a" d="M0 0H167.6534"/>
</g>
</g>
<g clip-path="url(#clip_20)">
<g clip-path="url(#clip_21)">
<path transform="matrix(-1,-0,0,-1,687.7094,687.23587)" stroke-width="3" stroke-linecap="butt" stroke-miterlimit="4" stroke-linejoin="miter" fill="none" stroke="#d0613a" d="M0 0H151.2906"/>
</g>
</g>
<g clip-path="url(#clip_22)">
<g clip-path="url(#clip_23)">
<path transform="matrix(0,-1,1,0,369.9588,725.73587)" stroke-width="3" stroke-linecap="butt" stroke-miterlimit="4" stroke-linejoin="miter" fill="none" stroke="#d0613a" d="M0 0H40"/>
</g>
</g>
<g clip-path="url(#clip_24)">
<g clip-path="url(#clip_25)">
<path transform="matrix(0,-1,1,0,687.9757,725.73587)" stroke-width="3" stroke-linecap="butt" stroke-miterlimit="4" stroke-linejoin="miter" fill="none" stroke="#d0613a" d="M0 0H40"/>
</g>
</g>
<g clip-path="url(#clip_26)">
<path transform="matrix(1,0,0,1,237.9078,726.1096)" stroke-width="3" stroke-linecap="butt" stroke-miterlimit="4" stroke-linejoin="miter" fill="none" stroke="#d0613a" d="M41.94445 0H222.1576C234.1028 0 241.2699 0 246.048 1.654751 253.6695 4.42876 259.6733 10.43253 262.4473 18.05406 263.542 21.06179 264.102 24.23786 264.102 27.43862 264.102 30.63938 263.542 33.81545 262.4473 36.82318 259.6733 44.44471 253.6695 50.44848 246.048 53.22248 241.2699 54.87724 234.1028 54.87724 222.1576 54.87724H41.94445C29.99926 54.87724 22.83214 54.87724 18.05406 53.22248 10.43253 50.44848 4.42876 44.44471 1.654751 36.82318 .5600276 33.81545 0 30.63938 0 27.43862 0 24.23786 .5600276 21.06179 1.654751 18.05406 4.42876 10.43253 10.43253 4.42876 18.05406 1.654751 22.83214 0 29.99926 0 41.94445 0ZM41.94445 0"/>
</g>
<g clip-path="url(#clip_27)">
<text xml:space="preserve" transform="matrix(1 0 -0 1 325.6246 763.02139)" font-size="24.48" font-family="Futura"><tspan y="0" x="0 17.774928 23.870448 33.804433 45.4716 54.460657 68.218418 75.12667">Discrete</tspan></text>
</g>
<g clip-path="url(#clip_28)">
<path transform="matrix(1,0,0,1,560.1146,726.1096)" stroke-width="3" stroke-linecap="butt" stroke-miterlimit="4" stroke-linejoin="miter" fill="none" stroke="#d0613a" d="M41.94445 0H222.1576C234.1028 0 241.2699 0 246.048 1.654751 253.6695 4.42876 259.6733 10.43253 262.4473 18.05406 263.542 21.06179 264.102 24.23786 264.102 27.43862 264.102 30.63938 263.542 33.81545 262.4473 36.82318 259.6733 44.44471 253.6695 50.44848 246.048 53.22248 241.2699 54.87724 234.1028 54.87724 222.1576 54.87724H41.94445C29.99926 54.87724 22.83214 54.87724 18.05406 53.22248 10.43253 50.44848 4.42876 44.44471 1.654751 36.82318 .5600276 33.81545 0 30.63938 0 27.43862 0 24.23786 .5600276 21.06179 1.654751 18.05406 4.42876 10.43253 10.43253 4.42876 18.05406 1.654751 22.83214 0 29.99926 0 41.94445 0ZM41.94445 0"/>
</g>
<g clip-path="url(#clip_29)">
<text xml:space="preserve" transform="matrix(1 0 -0 1 630.7505 763.02139)" font-size="24.48" font-family="Futura"><tspan y="0" x="0 17.153138 31.868063 45.290449 51.98328 58.0788 71.50119 84.84034 99.55527 112.89442">Continuous</tspan></text>
</g>
<g clip-path="url(#clip_30)">
<g clip-path="url(#clip_31)">
<path transform="matrix(0,-1,1,0,1140.748,685.4361)" stroke-width="3" stroke-linecap="butt" stroke-miterlimit="4" stroke-linejoin="miter" fill="none" stroke="#d0613a" d="M0 0H34.96354"/>
</g>
</g>
<g clip-path="url(#clip_32)">
<g clip-path="url(#clip_33)">
<path transform="matrix(-1,-0,0,-1,1124.748,687.23587)" stroke-width="3" stroke-linecap="butt" stroke-miterlimit="4" stroke-linejoin="miter" fill="none" stroke="#d0613a" d="M0 0H107.9031"/>
</g>
</g>
<g clip-path="url(#clip_34)">
<g clip-path="url(#clip_35)">
<path transform="matrix(-1,-0,0,-1,1345.995,687.23587)" stroke-width="3" stroke-linecap="butt" stroke-miterlimit="4" stroke-linejoin="miter" fill="none" stroke="#d0613a" d="M0 0H222.4402"/>
</g>
</g>
<g clip-path="url(#clip_36)">
<g clip-path="url(#clip_37)">
<path transform="matrix(0,-1,1,0,1016.095,725.7359)" stroke-width="3" stroke-linecap="butt" stroke-miterlimit="4" stroke-linejoin="miter" fill="none" stroke="#d0613a" d="M0 0H40.00016"/>
</g>
</g>
<g clip-path="url(#clip_38)">
<g clip-path="url(#clip_39)">
<path transform="matrix(0,-1,1,0,1346.301,725.73587)" stroke-width="3" stroke-linecap="butt" stroke-miterlimit="4" stroke-linejoin="miter" fill="none" stroke="#d0613a" d="M0 0H40"/>
</g>
</g>
<g clip-path="url(#clip_40)">
<path transform="matrix(1,0,0,1,887.1825,726.1096)" stroke-width="3" stroke-linecap="butt" stroke-miterlimit="4" stroke-linejoin="miter" fill="none" stroke="#d0613a" d="M41.94445 0H222.1576C234.1028 0 241.2699 0 246.048 1.654751 253.6695 4.42876 259.6733 10.43253 262.4473 18.05406 263.542 21.06179 264.102 24.23786 264.102 27.43862 264.102 30.63938 263.542 33.81545 262.4473 36.82318 259.6733 44.44471 253.6695 50.44848 246.048 53.22248 241.2699 54.87724 234.1028 54.87724 222.1576 54.87724H41.94445C29.99926 54.87724 22.83214 54.87724 18.05406 53.22248 10.43253 50.44848 4.42876 44.44471 1.654751 36.82318 .5600276 33.81545 0 30.63938 0 27.43862 0 24.23786 .5600276 21.06179 1.654751 18.05406 4.42876 10.43253 10.43253 4.42876 18.05406 1.654751 22.83214 0 29.99926 0 41.94445 0ZM41.94445 0"/>
</g>
<g clip-path="url(#clip_41)">
<text xml:space="preserve" transform="matrix(1 0 -0 1 976.3158 763.02139)" font-size="24.48" font-family="Futura"><tspan y="0" x="0 21.875329 30.864386 45.542596 51.638116 65.0605 79.738719">Ordinal</tspan></text>
</g>
<g clip-path="url(#clip_42)">
<path transform="matrix(1,0,0,1,1214.25,725.95706)" stroke-width="3" stroke-linecap="butt" stroke-miterlimit="4" stroke-linejoin="miter" fill="none" stroke="#d0613a" d="M41.94445 0H222.1576C234.1028 0 241.2699 0 246.048 1.654751 253.6695 4.42876 259.6733 10.43253 262.4473 18.05406 263.542 21.06179 264.102 24.23786 264.102 27.43862 264.102 30.63938 263.542 33.81545 262.4473 36.82318 259.6733 44.44471 253.6695 50.44848 246.048 53.22248 241.2699 54.87724 234.1028 54.87724 222.1576 54.87724H41.94445C29.99926 54.87724 22.83214 54.87724 18.05406 53.22248 10.43253 50.44848 4.42876 44.44471 1.654751 36.82318 .5600276 33.81545 0 30.63938 0 27.43862 0 24.23786 .5600276 21.06179 1.654751 18.05406 4.42876 10.43253 10.43253 4.42876 18.05406 1.654751 22.83214 0 29.99926 0 41.94445 0ZM41.94445 0"/>
</g>
<g clip-path="url(#clip_43)">
<text xml:space="preserve" transform="matrix(1 0 -0 1 1298.698 762.8688)" font-size="24.48" font-family="Futura"><tspan y="0" x="0 20.834929 35.54986 54.913537 61.009057 74.43144 89.10966">Nominal</tspan></text>
</g>
<g clip-path="url(#clip_44)">
<g clip-path="url(#clip_45)">
<path transform="matrix(0,-1,1,0,1346.301,815.3209)" stroke-width="3" stroke-linecap="butt" stroke-miterlimit="4" stroke-linejoin="miter" fill="none" stroke="#d0613a" d="M0 0H34.96354"/>
</g>
</g>
<g clip-path="url(#clip_46)">
<path transform="matrix(1,0,0,1,1214.25,813.95706)" stroke-width="3" stroke-linecap="butt" stroke-miterlimit="4" stroke-linejoin="miter" fill="none" stroke="#d0613a" d="M41.94445 0H222.1576C234.1028 0 241.2699 0 246.048 1.654751 253.6695 4.42876 259.6733 10.43253 262.4473 18.05406 263.542 21.06179 264.102 24.23786 264.102 27.43862 264.102 30.63938 263.542 33.81545 262.4473 36.82318 259.6733 44.44471 253.6695 50.44848 246.048 53.22248 241.2699 54.87724 234.1028 54.87724 222.1576 54.87724H41.94445C29.99926 54.87724 22.83214 54.87724 18.05406 53.22248 10.43253 50.44848 4.42876 44.44471 1.654751 36.82318 .5600276 33.81545 0 30.63938 0 27.43862 0 24.23786 .5600276 21.06179 1.654751 18.05406 4.42876 10.43253 10.43253 4.42876 18.05406 1.654751 22.83214 0 29.99926 0 41.94445 0ZM41.94445 0"/>
</g>
<g clip-path="url(#clip_47)">
<text xml:space="preserve" transform="matrix(1 0 -0 1 1310.197 850.8688)" font-size="24.48" font-family="Futura"><tspan y="0" x="0 14.475024 20.570546 33.99293 48.67114 58.90378">Binary</tspan></text>
</g>
</svg>
