<svg xmlns="http://www.w3.org/2000/svg" xmlns:xlink="http://www.w3.org/1999/xlink" xmlns:inkscape="http://www.inkscape.org/namespaces/inkscape" version="1.1" width="1694.667" height="1092" viewBox="0 0 1694.667 1092">
<defs>
<clipPath id="clip_0">
<path transform="matrix(1,0,0,-1,0,1092)" d="M586.2333 616.4502H1011.8215V705.7339H586.2333Z"/>
</clipPath>
<clipPath id="clip_1">
<path transform="matrix(1,0,0,-1,0,1092)" d="M587.2333 617.4502H1010.8215V704.7339H587.2333Z"/>
</clipPath>
<clipPath id="clip_2">
<path transform="matrix(1,0,0,-1,0,1092)" d="M796.5274 546.4346V619.4346H801.5274V546.4346Z"/>
</clipPath>
<clipPath id="clip_3">
<path transform="matrix(1,0,0,-1,0,1092)" d="M0 0H1694.667V1092H0Z"/>
</clipPath>
<clipPath id="clip_4">
<path transform="matrix(1,0,0,-1,0,1092)" d="M385.2418 434.5044H746.7596V517.53787H385.2418Z"/>
</clipPath>
<clipPath id="clip_5">
<path transform="matrix(1,0,0,-1,0,1092)" d="M386.2418 435.5044H745.7596V516.53787H386.2418Z"/>
</clipPath>
<clipPath id="clip_6">
<path transform="matrix(1,0,0,-1,0,1092)" d="M919.5199 434.5044H1281.0377V517.53787H919.5199Z"/>
</clipPath>
<clipPath id="clip_7">
<path transform="matrix(1,0,0,-1,0,1092)" d="M920.5199 435.5044H1280.0377V516.53787H920.5199Z"/>
</clipPath>
<clipPath id="clip_8">
<path transform="matrix(1,0,0,-1,0,1092)" d="M800.0274 545.4888H553.599V550.4888H800.0274Z"/>
</clipPath>
<clipPath id="clip_9">
<path transform="matrix(1,0,0,-1,0,1092)" d="M0 0H1694.667V1092H0Z"/>
</clipPath>
<clipPath id="clip_10">
<path transform="matrix(1,0,0,-1,0,1092)" d="M1101.687 545.4888H796.834V550.4888H1101.687Z"/>
</clipPath>
<clipPath id="clip_11">
<path transform="matrix(1,0,0,-1,0,1092)" d="M0 0H1694.667V1092H0Z"/>
</clipPath>
<clipPath id="clip_12">
<path transform="matrix(1,0,0,-1,0,1092)" d="M552.099 508.4888V550.4888H557.099V508.4888Z"/>
</clipPath>
<clipPath id="clip_13">
<path transform="matrix(1,0,0,-1,0,1092)" d="M0 0H1694.667V1092H0Z"/>
</clipPath>
<clipPath id="clip_14">
<path transform="matrix(1,0,0,-1,0,1092)" d="M1097.779 508.4888V550.4888H1102.779V508.4888Z"/>
</clipPath>
<clipPath id="clip_15">
<path transform="matrix(1,0,0,-1,0,1092)" d="M0 0H1694.667V1092H0Z"/>
</clipPath>
<clipPath id="clip_16">
<path transform="matrix(1,0,0,-1,0,1092)" d="M552.099 403.4347V463.3119H557.099V403.4347Z"/>
</clipPath>
<clipPath id="clip_17">
<path transform="matrix(1,0,0,-1,0,1092)" d="M0 0H1694.667V1092H0Z"/>
</clipPath>
<clipPath id="clip_18">
<path transform="matrix(1,0,0,-1,0,1092)" d="M551.2789 402.2642H381.6255V407.2642H551.2789Z"/>
</clipPath>
<clipPath id="clip_19">
<path transform="matrix(1,0,0,-1,0,1092)" d="M0 0H1694.667V1092H0Z"/>
</clipPath>
<clipPath id="clip_20">
<path transform="matrix(1,0,0,-1,0,1092)" d="M701.3761 402.2642H548.0855V407.2642H701.3761Z"/>
</clipPath>
<clipPath id="clip_21">
<path transform="matrix(1,0,0,-1,0,1092)" d="M0 0H1694.667V1092H0Z"/>
</clipPath>
<clipPath id="clip_22">
<path transform="matrix(1,0,0,-1,0,1092)" d="M380.1255 365.2642V407.2642H385.1255V365.2642Z"/>
</clipPath>
<clipPath id="clip_23">
<path transform="matrix(1,0,0,-1,0,1092)" d="M0 0H1694.667V1092H0Z"/>
</clipPath>
<clipPath id="clip_24">
<path transform="matrix(1,0,0,-1,0,1092)" d="M698.1424 365.2642V407.2642H703.1424V365.2642Z"/>
</clipPath>
<clipPath id="clip_25">
<path transform="matrix(1,0,0,-1,0,1092)" d="M0 0H1694.667V1092H0Z"/>
</clipPath>
<clipPath id="clip_26">
<path transform="matrix(1,0,0,-1,0,1092)" d="M248.0745 308.5131H517.1765V368.39033H248.0745Z"/>
</clipPath>
<clipPath id="clip_27">
<path transform="matrix(1,0,0,-1,0,1092)" d="M250.5745 311.0131H514.6765V365.89033H250.5745Z"/>
</clipPath>
<clipPath id="clip_28">
<path transform="matrix(1,0,0,-1,0,1092)" d="M570.2813 308.5131H839.3833V368.39033H570.2813Z"/>
</clipPath>
<clipPath id="clip_29">
<path transform="matrix(1,0,0,-1,0,1092)" d="M572.7813 311.0131H836.8833V365.89033H572.7813Z"/>
</clipPath>
<clipPath id="clip_30">
<path transform="matrix(1,0,0,-1,0,1092)" d="M1150.915 405.5639V442.5274H1155.915V405.5639Z"/>
</clipPath>
<clipPath id="clip_31">
<path transform="matrix(1,0,0,-1,0,1092)" d="M0 0H1694.667V1092H0Z"/>
</clipPath>
<clipPath id="clip_32">
<path transform="matrix(1,0,0,-1,0,1092)" d="M1138.415 402.2642H1028.512V407.2642H1138.415Z"/>
</clipPath>
<clipPath id="clip_33">
<path transform="matrix(1,0,0,-1,0,1092)" d="M0 0H1694.667V1092H0Z"/>
</clipPath>
<clipPath id="clip_34">
<path transform="matrix(1,0,0,-1,0,1092)" d="M1359.662 402.2642H1135.221V407.2642H1359.662Z"/>
</clipPath>
<clipPath id="clip_35">
<path transform="matrix(1,0,0,-1,0,1092)" d="M0 0H1694.667V1092H0Z"/>
</clipPath>
<clipPath id="clip_36">
<path transform="matrix(1,0,0,-1,0,1092)" d="M1026.261 365.2641V407.2642H1031.261V365.2641Z"/>
</clipPath>
<clipPath id="clip_37">
<path transform="matrix(1,0,0,-1,0,1092)" d="M0 0H1694.667V1092H0Z"/>
</clipPath>
<clipPath id="clip_38">
<path transform="matrix(1,0,0,-1,0,1092)" d="M1356.468 365.2642V407.2642H1361.468V365.2642Z"/>
</clipPath>
<clipPath id="clip_39">
<path transform="matrix(1,0,0,-1,0,1092)" d="M0 0H1694.667V1092H0Z"/>
</clipPath>
<clipPath id="clip_40">
<path transform="matrix(1,0,0,-1,0,1092)" d="M897.3492 308.5131H1166.4512V368.39033H897.3492Z"/>
</clipPath>
<clipPath id="clip_41">
<path transform="matrix(1,0,0,-1,0,1092)" d="M899.8492 311.0131H1163.9512V365.89033H899.8492Z"/>
</clipPath>
<clipPath id="clip_42">
<path transform="matrix(1,0,0,-1,0,1092)" d="M1224.417 308.6657H1493.519V368.54295H1224.417Z"/>
</clipPath>
<clipPath id="clip_43">
<path transform="matrix(1,0,0,-1,0,1092)" d="M1226.917 311.1657H1491.019V366.04295H1226.917Z"/>
</clipPath>
<clipPath id="clip_44">
<path transform="matrix(1,0,0,-1,0,1092)" d="M1356.468 275.6791V312.6427H1361.468V275.6791Z"/>
</clipPath>
<clipPath id="clip_45">
<path transform="matrix(1,0,0,-1,0,1092)" d="M0 0H1694.667V1092H0Z"/>
</clipPath>
<clipPath id="clip_46">
<path transform="matrix(1,0,0,-1,0,1092)" d="M1224.417 220.6657H1493.519V280.54295H1224.417Z"/>
</clipPath>
<clipPath id="clip_47">
<path transform="matrix(1,0,0,-1,0,1092)" d="M1226.917 223.1657H1491.019V278.04295H1226.917Z"/>
</clipPath>
</defs>
<g clip-path="url(#clip_0)">
<path transform="matrix(1,0,0,-1,0,1092)" d="M653.9471 704.7339H944.1077C963.1069 704.7339 974.5063 704.7339 982.106 702.102 994.2282 697.6898 1003.777 688.1407 1008.19 676.0184 1009.931 671.2346 1010.821 666.1829 1010.821 661.092 1010.821 656.0012 1009.931 650.9495 1008.19 646.1657 1003.777 634.0434 994.2282 624.4943 982.106 620.0821 974.5063 617.4502 963.1069 617.4502 944.1077 617.4502H653.9471C634.9479 617.4502 623.5484 617.4502 615.9488 620.0821 603.8265 624.4943 594.2774 634.0434 589.8652 646.1657 588.124 650.9495 587.2333 656.0012 587.2333 661.092 587.2333 666.1829 588.124 671.2346 589.8652 676.0184 594.2774 688.1407 603.8265 697.6898 615.9488 702.102 623.5484 704.7339 634.9479 704.7339 653.9471 704.7339ZM653.9471 704.7339" fill="#d0613a"/>
</g>
<g clip-path="url(#clip_1)">
<text fill="#ffffff" xml:space="preserve" transform="matrix(1 0 -0 1 647.3089 427.80439)" font-size="29.28" font-family="Futura"><tspan y="0" x="0 17.07024 31.02509 48.58138 55.8721 72.0698 83.95162 92.987438 110.58765 119.280879 128.31668 151.47716 167.67487 185.23114 197.11296 213.06763 223.81925 240.01694 263.17744 279.37513 295.42936">Scales of measurement</tspan></text>
</g>
<g clip-path="url(#clip_2)">
<g clip-path="url(#clip_3)">
<path transform="matrix(0,-1,1,0,799.0274,544.5654)" stroke-width="3" stroke-linecap="butt" stroke-miterlimit="4" stroke-linejoin="miter" fill="none" stroke="#d0613a" d="M0 0H71"/>
</g>
</g>
<g clip-path="url(#clip_4)">
<path transform="matrix(1,0,0,-1,0,1092)" d="M446.0004 516.5378H686.0009C703.0551 516.5378 713.2875 516.5378 720.1092 514.1409 730.9162 510.2075 739.4293 501.6944 743.3627 490.8874 744.9801 486.6927 745.7596 480.7793 745.7596 476.0211 745.7596 471.2629 744.9801 465.3495 743.3627 461.1548 739.4293 450.3478 730.9162 441.8347 720.1092 437.9013 713.2875 435.5044 703.0551 435.5044 686.0009 435.5044H446.0004C428.9463 435.5044 418.7138 435.5044 411.8921 437.9013 401.0852 441.8347 392.5721 450.3478 388.6386 461.1548 387.0213 465.3495 386.2418 471.2629 386.2418 476.0211 386.2418 480.7793 387.0213 486.6927 388.6386 490.8874 392.5721 501.6944 401.0852 510.2075 411.8921 514.1409 418.7138 516.5378 428.9463 516.5378 446.0004 516.5378ZM446.0004 516.5378" fill="#d0613a"/>
</g>
<g clip-path="url(#clip_5)">
<text fill="#ffffff" xml:space="preserve" transform="matrix(1 0 -0 1 482.7243 627.26)" font-size="30" font-family="Futura"><tspan y="0" x="0 26.808003 43.155008 61.143007 77.59201 85.794017 93.264019 101.73002 119.71802 127.92002 135.39002 149.95201">Quantitative</tspan></text>
</g>
<g clip-path="url(#clip_6)">
<path transform="matrix(1,0,0,-1,0,1092)" d="M980.2785 516.5378H1220.279C1237.333 516.5378 1247.566 516.5378 1254.387 514.1409 1265.194 510.2075 1273.707 501.6944 1277.641 490.8874 1279.258 486.6927 1280.038 480.7793 1280.038 476.0211 1280.038 471.2629 1279.258 465.3495 1277.641 461.1548 1273.707 450.3478 1265.194 441.8347 1254.387 437.9013 1247.566 435.5044 1237.333 435.5044 1220.279 435.5044H980.2785C963.2244 435.5044 952.992 435.5044 946.1703 437.9013 935.3633 441.8347 926.8502 450.3478 922.9168 461.1548 921.2994 465.3495 920.5199 471.2629 920.5199 476.0211 920.5199 480.7793 921.2994 486.6927 922.9168 490.8874 926.8502 501.6944 935.3633 510.2075 946.1703 514.1409 952.992 516.5378 963.2244 516.5378 980.2785 516.5378ZM980.2785 516.5378" fill="#d0613a"/>
</g>
<g clip-path="url(#clip_7)">
<text fill="#ffffff" xml:space="preserve" transform="matrix(1 0 -0 1 1020.796 627.26)" font-size="30" font-family="Futura"><tspan y="0" x="0 21.021 39.009 47.475 64.071 82.029 100.062 111.738 119.208 133.50601 151.49402">Categorical</tspan></text>
</g>
<g clip-path="url(#clip_8)">
<g clip-path="url(#clip_9)">
<path transform="matrix(-1,-0,0,-1,799.0274,544.0112)" stroke-width="3" stroke-linecap="butt" stroke-miterlimit="4" stroke-linejoin="miter" fill="none" stroke="#d0613a" d="M0 0H244.4284"/>
</g>
</g>
<g clip-path="url(#clip_10)">
<g clip-path="url(#clip_11)">
<path transform="matrix(-1,-0,0,-1,1100.687,544.0112)" stroke-width="3" stroke-linecap="butt" stroke-miterlimit="4" stroke-linejoin="miter" fill="none" stroke="#d0613a" d="M0 0H302.8533"/>
</g>
</g>
<g clip-path="url(#clip_12)">
<g clip-path="url(#clip_13)">
<path transform="matrix(0,-1,1,0,554.599,582.5112)" stroke-width="3" stroke-linecap="butt" stroke-miterlimit="4" stroke-linejoin="miter" fill="none" stroke="#d0613a" d="M0 0H40"/>
</g>
</g>
<g clip-path="url(#clip_14)">
<g clip-path="url(#clip_15)">
<path transform="matrix(0,-1,1,0,1100.279,582.5112)" stroke-width="3" stroke-linecap="butt" stroke-miterlimit="4" stroke-linejoin="miter" fill="none" stroke="#d0613a" d="M0 0H40"/>
</g>
</g>
<g clip-path="url(#clip_16)">
<g clip-path="url(#clip_17)">
<path transform="matrix(0,-1,1,0,554.599,687.5653)" stroke-width="3" stroke-linecap="butt" stroke-miterlimit="4" stroke-linejoin="miter" fill="none" stroke="#d0613a" d="M0 0H57.87724"/>
</g>
</g>
<g clip-path="url(#clip_18)">
<g clip-path="url(#clip_19)">
<path transform="matrix(-1,-0,0,-1,550.2789,687.23587)" stroke-width="3" stroke-linecap="butt" stroke-miterlimit="4" stroke-linejoin="miter" fill="none" stroke="#d0613a" d="M0 0H167.6534"/>
</g>
</g>
<g clip-path="url(#clip_20)">
<g clip-path="url(#clip_21)">
<path transform="matrix(-1,-0,0,-1,700.3761,687.23587)" stroke-width="3" stroke-linecap="butt" stroke-miterlimit="4" stroke-linejoin="miter" fill="none" stroke="#d0613a" d="M0 0H151.2906"/>
</g>
</g>
<g clip-path="url(#clip_22)">
<g clip-path="url(#clip_23)">
<path transform="matrix(0,-1,1,0,382.6255,725.73587)" stroke-width="3" stroke-linecap="butt" stroke-miterlimit="4" stroke-linejoin="miter" fill="none" stroke="#d0613a" d="M0 0H40"/>
</g>
</g>
<g clip-path="url(#clip_24)">
<g clip-path="url(#clip_25)">
<path transform="matrix(0,-1,1,0,700.6424,725.73587)" stroke-width="3" stroke-linecap="butt" stroke-miterlimit="4" stroke-linejoin="miter" fill="none" stroke="#d0613a" d="M0 0H40"/>
</g>
</g>
<g clip-path="url(#clip_26)">
<path transform="matrix(1,0,0,-1,0,1092)" d="M292.5189 365.8904H472.732C484.6772 365.8904 491.8443 365.8904 496.6224 364.2356 504.2439 361.4616 510.2477 355.4579 513.0217 347.8363 514.1164 344.8286 514.6765 341.6525 514.6765 338.4518 514.6765 335.251 514.1164 332.0749 513.0217 329.0672 510.2477 321.4457 504.2439 315.4419 496.6224 312.6679 491.8443 311.0131 484.6772 311.0131 472.732 311.0131H292.5189C280.5737 311.0131 273.4066 311.0131 268.6285 312.6679 261.007 315.4419 255.0032 321.4457 252.2292 329.0672 251.1345 332.0749 250.5745 335.251 250.5745 338.4518 250.5745 341.6525 251.1345 344.8286 252.2292 347.8363 255.0032 355.4579 261.007 361.4616 268.6285 364.2356 273.4066 365.8904 280.5737 365.8904 292.5189 365.8904ZM292.5189 365.8904" fill="#ffffff"/>
<path transform="matrix(1,0,0,1,250.5745,726.1096)" stroke-width="3" stroke-linecap="butt" stroke-miterlimit="4" stroke-linejoin="miter" fill="none" stroke="#d0613a" d="M41.94445 0H222.1576C234.1028 0 241.2699 0 246.048 1.654751 253.6695 4.42876 259.6733 10.43253 262.4473 18.05406 263.542 21.06179 264.102 24.23786 264.102 27.43862 264.102 30.63938 263.542 33.81545 262.4473 36.82318 259.6733 44.44471 253.6695 50.44848 246.048 53.22248 241.2699 54.87724 234.1028 54.87724 222.1576 54.87724H41.94445C29.99926 54.87724 22.83214 54.87724 18.05406 53.22248 10.43253 50.44848 4.42876 44.44471 1.654751 36.82318 .5600276 33.81545 0 30.63938 0 27.43862 0 24.23786 .5600276 21.06179 1.654751 18.05406 4.42876 10.43253 10.43253 4.42876 18.05406 1.654751 22.83214 0 29.99926 0 41.94445 0ZM41.94445 0"/>
</g>
<g clip-path="url(#clip_27)">
<text xml:space="preserve" transform="matrix(1 0 -0 1 338.2913 763.02139)" font-size="24.48" font-family="Futura"><tspan y="0" x="0 17.774928 23.870448 33.804433 45.4716 54.460657 68.218418 75.12667">Discrete</tspan></text>
</g>
<g clip-path="url(#clip_28)">
<path transform="matrix(1,0,0,-1,0,1092)" d="M614.7257 365.8904H794.9388C806.884 365.8904 814.0512 365.8904 818.8292 364.2356 826.4508 361.4616 832.4545 355.4579 835.2285 347.8363 836.3233 344.8286 836.8833 341.6525 836.8833 338.4518 836.8833 335.251 836.3233 332.0749 835.2285 329.0672 832.4545 321.4457 826.4508 315.4419 818.8292 312.6679 814.0512 311.0131 806.884 311.0131 794.9388 311.0131H614.7257C602.7805 311.0131 595.6134 311.0131 590.8353 312.6679 583.2138 315.4419 577.21 321.4457 574.436 329.0672 573.3413 332.0749 572.7813 335.251 572.7813 338.4518 572.7813 341.6525 573.3413 344.8286 574.436 347.8363 577.21 355.4579 583.2138 361.4616 590.8353 364.2356 595.6134 365.8904 602.7805 365.8904 614.7257 365.8904ZM614.7257 365.8904" fill="#ffffff"/>
<path transform="matrix(1,0,0,1,572.7813,726.1096)" stroke-width="3" stroke-linecap="butt" stroke-miterlimit="4" stroke-linejoin="miter" fill="none" stroke="#d0613a" d="M41.94445 0H222.1576C234.1028 0 241.2699 0 246.048 1.654751 253.6695 4.42876 259.6733 10.43253 262.4473 18.05406 263.542 21.06179 264.102 24.23786 264.102 27.43862 264.102 30.63938 263.542 33.81545 262.4473 36.82318 259.6733 44.44471 253.6695 50.44848 246.048 53.22248 241.2699 54.87724 234.1028 54.87724 222.1576 54.87724H41.94445C29.99926 54.87724 22.83214 54.87724 18.05406 53.22248 10.43253 50.44848 4.42876 44.44471 1.654751 36.82318 .5600276 33.81545 0 30.63938 0 27.43862 0 24.23786 .5600276 21.06179 1.654751 18.05406 4.42876 10.43253 10.43253 4.42876 18.05406 1.654751 22.83214 0 29.99926 0 41.94445 0ZM41.94445 0"/>
</g>
<g clip-path="url(#clip_29)">
<text xml:space="preserve" transform="matrix(1 0 -0 1 643.4171 763.02139)" font-size="24.48" font-family="Futura"><tspan y="0" x="0 17.153138 31.868063 45.290449 51.98328 58.0788 71.50119 84.84034 99.55527 112.89442">Continuous</tspan></text>
</g>
<g clip-path="url(#clip_30)">
<g clip-path="url(#clip_31)">
<path transform="matrix(0,-1,1,0,1153.415,685.4361)" stroke-width="3" stroke-linecap="butt" stroke-miterlimit="4" stroke-linejoin="miter" fill="none" stroke="#d0613a" d="M0 0H34.96354"/>
</g>
</g>
<g clip-path="url(#clip_32)">
<g clip-path="url(#clip_33)">
<path transform="matrix(-1,-0,0,-1,1137.415,687.23587)" stroke-width="3" stroke-linecap="butt" stroke-miterlimit="4" stroke-linejoin="miter" fill="none" stroke="#d0613a" d="M0 0H107.9031"/>
</g>
</g>
<g clip-path="url(#clip_34)">
<g clip-path="url(#clip_35)">
<path transform="matrix(-1,-0,0,-1,1358.662,687.23587)" stroke-width="3" stroke-linecap="butt" stroke-miterlimit="4" stroke-linejoin="miter" fill="none" stroke="#d0613a" d="M0 0H222.4402"/>
</g>
</g>
<g clip-path="url(#clip_36)">
<g clip-path="url(#clip_37)">
<path transform="matrix(0,-1,1,0,1028.761,725.7359)" stroke-width="3" stroke-linecap="butt" stroke-miterlimit="4" stroke-linejoin="miter" fill="none" stroke="#d0613a" d="M0 0H40.00016"/>
</g>
</g>
<g clip-path="url(#clip_38)">
<g clip-path="url(#clip_39)">
<path transform="matrix(0,-1,1,0,1358.968,725.73587)" stroke-width="3" stroke-linecap="butt" stroke-miterlimit="4" stroke-linejoin="miter" fill="none" stroke="#d0613a" d="M0 0H40"/>
</g>
</g>
<g clip-path="url(#clip_40)">
<path transform="matrix(1,0,0,-1,0,1092)" d="M941.7937 365.8904H1122.007C1133.952 365.8904 1141.119 365.8904 1145.897 364.2356 1153.519 361.4616 1159.522 355.4579 1162.296 347.8363 1163.391 344.8286 1163.951 341.6525 1163.951 338.4518 1163.951 335.251 1163.391 332.0749 1162.296 329.0672 1159.522 321.4457 1153.519 315.4419 1145.897 312.6679 1141.119 311.0131 1133.952 311.0131 1122.007 311.0131H941.7937C929.8485 311.0131 922.6813 311.0131 917.9033 312.6679 910.2817 315.4419 904.278 321.4457 901.504 329.0672 900.4092 332.0749 899.8492 335.251 899.8492 338.4518 899.8492 341.6525 900.4092 344.8286 901.504 347.8363 904.278 355.4579 910.2817 361.4616 917.9033 364.2356 922.6813 365.8904 929.8485 365.8904 941.7937 365.8904ZM941.7937 365.8904" fill="#ffffff"/>
<path transform="matrix(1,0,0,1,899.8492,726.1096)" stroke-width="3" stroke-linecap="butt" stroke-miterlimit="4" stroke-linejoin="miter" fill="none" stroke="#d0613a" d="M41.94445 0H222.1576C234.1028 0 241.2699 0 246.048 1.654751 253.6695 4.42876 259.6733 10.43253 262.4473 18.05406 263.542 21.06179 264.102 24.23786 264.102 27.43862 264.102 30.63938 263.542 33.81545 262.4473 36.82318 259.6733 44.44471 253.6695 50.44848 246.048 53.22248 241.2699 54.87724 234.1028 54.87724 222.1576 54.87724H41.94445C29.99926 54.87724 22.83214 54.87724 18.05406 53.22248 10.43253 50.44848 4.42876 44.44471 1.654751 36.82318 .5600276 33.81545 0 30.63938 0 27.43862 0 24.23786 .5600276 21.06179 1.654751 18.05406 4.42876 10.43253 10.43253 4.42876 18.05406 1.654751 22.83214 0 29.99926 0 41.94445 0ZM41.94445 0"/>
</g>
<g clip-path="url(#clip_41)">
<text xml:space="preserve" transform="matrix(1 0 -0 1 988.9825 763.02139)" font-size="24.48" font-family="Futura"><tspan y="0" x="0 21.875329 30.864386 45.542596 51.638116 65.0605 79.738719">Ordinal</tspan></text>
</g>
<g clip-path="url(#clip_42)">
<path transform="matrix(1,0,0,-1,0,1092)" d="M1268.862 366.043H1449.075C1461.02 366.043 1468.187 366.043 1472.965 364.3882 1480.587 361.6142 1486.59 355.6104 1489.364 347.9889 1490.459 344.9812 1491.019 341.8051 1491.019 338.6044 1491.019 335.4036 1490.459 332.2275 1489.364 329.2198 1486.59 321.5983 1480.587 315.5945 1472.965 312.8205 1468.187 311.1657 1461.02 311.1657 1449.075 311.1657H1268.862C1256.916 311.1657 1249.749 311.1657 1244.971 312.8205 1237.35 315.5945 1231.346 321.5983 1228.572 329.2198 1227.477 332.2275 1226.917 335.4036 1226.917 338.6044 1226.917 341.8051 1227.477 344.9812 1228.572 347.9889 1231.346 355.6104 1237.35 361.6142 1244.971 364.3882 1249.749 366.043 1256.916 366.043 1268.862 366.043ZM1268.862 366.043" fill="#ffffff"/>
<path transform="matrix(1,0,0,1,1226.917,725.95706)" stroke-width="3" stroke-linecap="butt" stroke-miterlimit="4" stroke-linejoin="miter" fill="none" stroke="#d0613a" d="M41.94445 0H222.1576C234.1028 0 241.2699 0 246.048 1.654751 253.6695 4.42876 259.6733 10.43253 262.4473 18.05406 263.542 21.06179 264.102 24.23786 264.102 27.43862 264.102 30.63938 263.542 33.81545 262.4473 36.82318 259.6733 44.44471 253.6695 50.44848 246.048 53.22248 241.2699 54.87724 234.1028 54.87724 222.1576 54.87724H41.94445C29.99926 54.87724 22.83214 54.87724 18.05406 53.22248 10.43253 50.44848 4.42876 44.44471 1.654751 36.82318 .5600276 33.81545 0 30.63938 0 27.43862 0 24.23786 .5600276 21.06179 1.654751 18.05406 4.42876 10.43253 10.43253 4.42876 18.05406 1.654751 22.83214 0 29.99926 0 41.94445 0ZM41.94445 0"/>
</g>
<g clip-path="url(#clip_43)">
<text xml:space="preserve" transform="matrix(1 0 -0 1 1311.365 762.8688)" font-size="24.48" font-family="Futura"><tspan y="0" x="0 20.834929 35.54986 54.913537 61.009057 74.43144 89.10966">Nominal</tspan></text>
</g>
<g clip-path="url(#clip_44)">
<g clip-path="url(#clip_45)">
<path transform="matrix(0,-1,1,0,1358.968,815.3209)" stroke-width="3" stroke-linecap="butt" stroke-miterlimit="4" stroke-linejoin="miter" fill="none" stroke="#d0613a" d="M0 0H34.96354"/>
</g>
</g>
<g clip-path="url(#clip_46)">
<path transform="matrix(1,0,0,-1,0,1092)" d="M1268.862 278.043H1449.075C1461.02 278.043 1468.187 278.043 1472.965 276.3882 1480.587 273.6142 1486.59 267.6104 1489.364 259.9889 1490.459 256.9812 1491.019 253.8051 1491.019 250.6044 1491.019 247.4036 1490.459 244.2275 1489.364 241.2198 1486.59 233.5983 1480.587 227.5945 1472.965 224.8205 1468.187 223.1657 1461.02 223.1657 1449.075 223.1657H1268.862C1256.916 223.1657 1249.749 223.1657 1244.971 224.8205 1237.35 227.5945 1231.346 233.5983 1228.572 241.2198 1227.477 244.2275 1226.917 247.4036 1226.917 250.6044 1226.917 253.8051 1227.477 256.9812 1228.572 259.9889 1231.346 267.6104 1237.35 273.6142 1244.971 276.3882 1249.749 278.043 1256.916 278.043 1268.862 278.043ZM1268.862 278.043" fill="#ffffff"/>
<path transform="matrix(1,0,0,1,1226.917,813.95706)" stroke-width="3" stroke-linecap="butt" stroke-miterlimit="4" stroke-linejoin="miter" fill="none" stroke="#d0613a" d="M41.94445 0H222.1576C234.1028 0 241.2699 0 246.048 1.654751 253.6695 4.42876 259.6733 10.43253 262.4473 18.05406 263.542 21.06179 264.102 24.23786 264.102 27.43862 264.102 30.63938 263.542 33.81545 262.4473 36.82318 259.6733 44.44471 253.6695 50.44848 246.048 53.22248 241.2699 54.87724 234.1028 54.87724 222.1576 54.87724H41.94445C29.99926 54.87724 22.83214 54.87724 18.05406 53.22248 10.43253 50.44848 4.42876 44.44471 1.654751 36.82318 .5600276 33.81545 0 30.63938 0 27.43862 0 24.23786 .5600276 21.06179 1.654751 18.05406 4.42876 10.43253 10.43253 4.42876 18.05406 1.654751 22.83214 0 29.99926 0 41.94445 0ZM41.94445 0"/>
</g>
<g clip-path="url(#clip_47)">
<text xml:space="preserve" transform="matrix(1 0 -0 1 1322.864 850.8688)" font-size="24.48" font-family="Futura"><tspan y="0" x="0 14.475024 20.570546 33.99293 48.67114 58.90378">Binary</tspan></text>
</g>
</svg>
