<svg width="4290" height="4382" xmlns="http://www.w3.org/2000/svg" xmlns:xlink="http://www.w3.org/1999/xlink" xml:space="preserve" overflow="hidden"><defs><clipPath id="clip0"><rect x="128" y="123" width="4290" height="4382"/></clipPath><clipPath id="clip1"><rect x="128" y="123" width="4290" height="4382"/></clipPath></defs><g clip-path="url(#clip0)" transform="translate(-128 -123)"><g clip-path="url(#clip1)"><path d="M134 154.836C134 138.91 146.91 126 162.835 126L4340.16 126C4356.09 126 4369 138.91 4369 154.836L4369 270.164C4369 286.09 4356.09 299 4340.16 299L162.835 299C146.91 299 134 286.09 134 270.164Z" fill="#DD7374" fill-rule="evenodd" fill-opacity="1"/><text fill="#FFFFFF" fill-opacity="1" font-family="Calibri,Calibri_MSFontService,sans-serif" font-style="normal" font-variant="normal" font-weight="700" font-stretch="normal" font-size="83" text-anchor="start" direction="ltr" writing-mode="lr-tb" unicode-bidi="normal" text-decoration="none" transform="matrix(1 0 0 1 1915.58 240)">Measures of spread</text><rect x="3775.5" y="917.5" width="128" height="655" stroke="#FFFFFF" stroke-width="6.875" stroke-linecap="butt" stroke-linejoin="miter" stroke-miterlimit="8" stroke-opacity="1" fill="#DD7374" fill-opacity="1"/><rect x="3905.5" y="1094.5" width="128" height="478" stroke="#FFFFFF" stroke-width="6.875" stroke-linecap="butt" stroke-linejoin="miter" stroke-miterlimit="8" stroke-opacity="1" fill="#DD7374" fill-opacity="1"/><rect x="4034.5" y="1309.5" width="128" height="263" stroke="#FFFFFF" stroke-width="6.875" stroke-linecap="butt" stroke-linejoin="miter" stroke-miterlimit="8" stroke-opacity="1" fill="#DD7374" fill-opacity="1"/><rect x="4164.5" y="1428.5" width="128" height="144" stroke="#FFFFFF" stroke-width="6.875" stroke-linecap="butt" stroke-linejoin="miter" stroke-miterlimit="8" stroke-opacity="1" fill="#DD7374" fill-opacity="1"/><rect x="3645.5" y="726.5" width="128" height="846" stroke="#FFFFFF" stroke-width="6.875" stroke-linecap="butt" stroke-linejoin="miter" stroke-miterlimit="8" stroke-opacity="1" fill="#DD7374" fill-opacity="1"/><rect x="3516.5" y="917.5" width="128" height="655" stroke="#FFFFFF" stroke-width="6.875" stroke-linecap="butt" stroke-linejoin="miter" stroke-miterlimit="8" stroke-opacity="1" fill="#DD7374" fill-opacity="1"/><rect x="3386.5" y="1094.5" width="128" height="478" stroke="#FFFFFF" stroke-width="6.875" stroke-linecap="butt" stroke-linejoin="miter" stroke-miterlimit="8" stroke-opacity="1" fill="#DD7374" fill-opacity="1"/><rect x="3256.5" y="1309.5" width="128" height="263" stroke="#FFFFFF" stroke-width="6.875" stroke-linecap="butt" stroke-linejoin="miter" stroke-miterlimit="8" stroke-opacity="1" fill="#DD7374" fill-opacity="1"/><rect x="3127.5" y="1428.5" width="128" height="144" stroke="#FFFFFF" stroke-width="6.875" stroke-linecap="butt" stroke-linejoin="miter" stroke-miterlimit="8" stroke-opacity="1" fill="#DD7374" fill-opacity="1"/><path d="M1618 429.167C1618 403.67 1638.67 383 1664.17 383L2943.83 383C2969.33 383 2990 403.67 2990 429.167L2990 613.833C2990 639.33 2969.33 660 2943.83 660L1664.17 660C1638.67 660 1618 639.33 1618 613.833Z" stroke="#DD7374" stroke-width="10.3125" stroke-linecap="butt" stroke-linejoin="miter" stroke-miterlimit="8" stroke-opacity="1" fill="#FFFFFF" fill-rule="evenodd" fill-opacity="1"/><text fill="#DD7374" fill-opacity="1" font-family="Calibri,Calibri_MSFontService,sans-serif" font-style="normal" font-variant="normal" font-weight="700" font-stretch="normal" font-size="83" text-anchor="start" direction="ltr" writing-mode="lr-tb" unicode-bidi="normal" text-decoration="none" transform="matrix(1 0 0 1 1983.35 549)">Interquartile</text><text fill="#DD7374" fill-opacity="1" font-family="Calibri,Calibri_MSFontService,sans-serif" font-style="normal" font-variant="normal" font-weight="700" font-stretch="normal" font-size="83" text-anchor="start" direction="ltr" writing-mode="lr-tb" unicode-bidi="normal" text-decoration="none" transform="matrix(1 0 0 1 2432.61 549)">range</text><path d="M1618 754.834C1618 738.909 1630.91 726 1646.83 726L2961.17 726C2977.09 726 2990 738.909 2990 754.834L2990 870.166C2990 886.09 2977.09 899 2961.17 899L1646.83 899C1630.91 899 1618 886.09 1618 870.166Z" fill="#595959" fill-rule="evenodd" fill-opacity="1"/><text fill="#FFFFFF" fill-opacity="1" font-family="Courier New,Courier New_MSFontService,sans-serif" font-style="normal" font-variant="normal" font-weight="400" font-stretch="normal" font-size="69" text-anchor="start" direction="ltr" writing-mode="lr-tb" unicode-bidi="normal" text-decoration="none" transform="matrix(1 0 0 1 1659.04 832)">.quantile(0.</text><text fill="#FFFFFF" fill-opacity="1" font-family="Courier New,Courier New_MSFontService,sans-serif" font-style="normal" font-variant="normal" font-weight="400" font-stretch="normal" font-size="69" text-anchor="start" direction="ltr" writing-mode="lr-tb" unicode-bidi="normal" text-decoration="none" transform="matrix(1 0 0 1 2154.04 832)">7</text><text fill="#FFFFFF" fill-opacity="1" font-family="Courier New,Courier New_MSFontService,sans-serif" font-style="normal" font-variant="normal" font-weight="400" font-stretch="normal" font-size="69" text-anchor="start" direction="ltr" writing-mode="lr-tb" unicode-bidi="normal" text-decoration="none" transform="matrix(1 0 0 1 2195.29 832)">5)</text><text fill="#FFFFFF" fill-opacity="1" font-family="Courier New,Courier New_MSFontService,sans-serif" font-style="normal" font-variant="normal" font-weight="400" font-stretch="normal" font-size="69" text-anchor="start" direction="ltr" writing-mode="lr-tb" unicode-bidi="normal" text-decoration="none" transform="matrix(1 0 0 1 2277.79 832)">-</text><text fill="#FFFFFF" fill-opacity="1" font-family="Courier New,Courier New_MSFontService,sans-serif" font-style="normal" font-variant="normal" font-weight="400" font-stretch="normal" font-size="69" text-anchor="start" direction="ltr" writing-mode="lr-tb" unicode-bidi="normal" text-decoration="none" transform="matrix(1 0 0 1 2319.04 832)">.quantile(0.</text><text fill="#FFFFFF" fill-opacity="1" font-family="Courier New,Courier New_MSFontService,sans-serif" font-style="normal" font-variant="normal" font-weight="400" font-stretch="normal" font-size="69" text-anchor="start" direction="ltr" writing-mode="lr-tb" unicode-bidi="normal" text-decoration="none" transform="matrix(1 0 0 1 2814.04 832)">2</text><text fill="#FFFFFF" fill-opacity="1" font-family="Courier New,Courier New_MSFontService,sans-serif" font-style="normal" font-variant="normal" font-weight="400" font-stretch="normal" font-size="69" text-anchor="start" direction="ltr" writing-mode="lr-tb" unicode-bidi="normal" text-decoration="none" transform="matrix(1 0 0 1 2855.29 832)">5)</text><path d="M1618 1017.68C1618 988.585 1641.59 965 1670.68 965L2937.32 965C2966.41 965 2990 988.585 2990 1017.68L2990 1764.32C2990 1793.41 2966.41 1817 2937.32 1817L1670.68 1817C1641.59 1817 1618 1793.41 1618 1764.32Z" stroke="#DD7374" stroke-width="10.3125" stroke-linecap="butt" stroke-linejoin="miter" stroke-miterlimit="8" stroke-opacity="1" fill="#FFFFFF" fill-rule="evenodd" fill-opacity="1"/><text fill="#000000" fill-opacity="1" font-family="Calibri,Calibri_MSFontService,sans-serif" font-style="normal" font-variant="normal" font-weight="400" font-stretch="normal" font-size="83" text-anchor="start" direction="ltr" writing-mode="lr-tb" unicode-bidi="normal" text-decoration="none" transform="matrix(1 0 0 1 1666.01 1074)">The range in which 50% of the central </text><text fill="#000000" fill-opacity="1" font-family="Calibri,Calibri_MSFontService,sans-serif" font-style="normal" font-variant="normal" font-weight="400" font-stretch="normal" font-size="83" text-anchor="start" direction="ltr" writing-mode="lr-tb" unicode-bidi="normal" text-decoration="none" transform="matrix(1 0 0 1 1666.01 1173)">data lies.</text><text fill="#000000" fill-opacity="1" font-family="Cambria Math,Cambria Math_MSFontService,sans-serif" font-style="normal" font-variant="normal" font-weight="400" font-stretch="normal" font-size="83" text-anchor="start" direction="ltr" writing-mode="lr-tb" unicode-bidi="normal" text-decoration="none" transform="matrix(1 0 0 1 2034.97 1272)">I</text><text fill="#000000" fill-opacity="1" font-family="Cambria Math,Cambria Math_MSFontService,sans-serif" font-style="normal" font-variant="normal" font-weight="400" font-stretch="normal" font-size="83" text-anchor="start" direction="ltr" writing-mode="lr-tb" unicode-bidi="normal" text-decoration="none" transform="matrix(1 0 0 1 2061.9 1272)">QR</text><text fill="#000000" fill-opacity="1" font-family="Cambria Math,Cambria Math_MSFontService,sans-serif" font-style="normal" font-variant="normal" font-weight="400" font-stretch="normal" font-size="83" text-anchor="start" direction="ltr" writing-mode="lr-tb" unicode-bidi="normal" text-decoration="none" transform="matrix(1 0 0 1 2189.66 1272)">=</text><text fill="#000000" fill-opacity="1" font-family="Cambria Math,Cambria Math_MSFontService,sans-serif" font-style="normal" font-variant="normal" font-weight="400" font-stretch="normal" font-size="83" text-anchor="start" direction="ltr" writing-mode="lr-tb" unicode-bidi="normal" text-decoration="none" transform="matrix(1 0 0 1 2274.45 1272)">Q3</text><text fill="#000000" fill-opacity="1" font-family="Cambria Math,Cambria Math_MSFontService,sans-serif" font-style="normal" font-variant="normal" font-weight="400" font-stretch="normal" font-size="83" text-anchor="start" direction="ltr" writing-mode="lr-tb" unicode-bidi="normal" text-decoration="none" transform="matrix(1 0 0 1 2392.47 1272)">−</text><text fill="#000000" fill-opacity="1" font-family="Cambria Math,Cambria Math_MSFontService,sans-serif" font-style="normal" font-variant="normal" font-weight="400" font-stretch="normal" font-size="83" text-anchor="start" direction="ltr" writing-mode="lr-tb" unicode-bidi="normal" text-decoration="none" transform="matrix(1 0 0 1 2472.68 1272)">Q1</text><text fill="#000000" fill-opacity="1" font-family="Calibri,Calibri_MSFontService,sans-serif" font-style="normal" font-variant="normal" font-weight="400" font-stretch="normal" font-size="83" text-anchor="start" direction="ltr" writing-mode="lr-tb" unicode-bidi="normal" text-decoration="none" transform="matrix(1 0 0 1 1666.01 1470)">Calculated for </text><text fill="#000000" fill-opacity="1" font-family="Calibri,Calibri_MSFontService,sans-serif" font-style="normal" font-variant="normal" font-weight="700" font-stretch="normal" font-size="83" text-anchor="start" direction="ltr" writing-mode="lr-tb" unicode-bidi="normal" text-decoration="none" transform="matrix(1 0 0 1 2149.6 1470)">quantitative </text><text fill="#000000" fill-opacity="1" font-family="Calibri,Calibri_MSFontService,sans-serif" font-style="normal" font-variant="normal" font-weight="400" font-stretch="normal" font-size="83" text-anchor="start" direction="ltr" writing-mode="lr-tb" unicode-bidi="normal" text-decoration="none" transform="matrix(1 0 0 1 2585.38 1470)">data</text><text fill="#000000" fill-opacity="1" font-family="Calibri,Calibri_MSFontService,sans-serif" font-style="normal" font-variant="normal" font-weight="400" font-stretch="normal" font-size="83" text-anchor="start" direction="ltr" writing-mode="lr-tb" unicode-bidi="normal" text-decoration="none" transform="matrix(1 0 0 1 1666.01 1767)">Resistant</text><text fill="#000000" fill-opacity="1" font-family="Calibri,Calibri_MSFontService,sans-serif" font-style="normal" font-variant="normal" font-weight="400" font-stretch="normal" font-size="83" text-anchor="start" direction="ltr" writing-mode="lr-tb" unicode-bidi="normal" text-decoration="none" transform="matrix(1 0 0 1 1987.88 1767)">to outliers</text><path d="M134 429.168C134 403.67 154.67 383 180.168 383L1460.83 383C1486.33 383 1507 403.67 1507 429.168L1507 613.832C1507 639.33 1486.33 660 1460.83 660L180.168 660C154.67 660 134 639.33 134 613.832Z" stroke="#DD7374" stroke-width="10.3125" stroke-linecap="butt" stroke-linejoin="miter" stroke-miterlimit="8" stroke-opacity="1" fill="#FFFFFF" fill-rule="evenodd" fill-opacity="1"/><text fill="#DD7374" fill-opacity="1" font-family="Calibri,Calibri_MSFontService,sans-serif" font-style="normal" font-variant="normal" font-weight="700" font-stretch="normal" font-size="83" text-anchor="start" direction="ltr" writing-mode="lr-tb" unicode-bidi="normal" text-decoration="none" transform="matrix(1 0 0 1 715.255 549)">Range</text><path d="M134 754.834C134 738.909 146.909 726 162.834 726L1478.17 726C1494.09 726 1507 738.909 1507 754.834L1507 870.166C1507 886.09 1494.09 899 1478.17 899L162.834 899C146.909 899 134 886.09 134 870.166Z" fill="#595959" fill-rule="evenodd" fill-opacity="1"/><text fill="#FFFFFF" fill-opacity="1" font-family="Courier New,Courier New_MSFontService,sans-serif" font-style="normal" font-variant="normal" font-weight="400" font-stretch="normal" font-size="69" text-anchor="start" direction="ltr" writing-mode="lr-tb" unicode-bidi="normal" text-decoration="none" transform="matrix(1 0 0 1 175.816 832)">.max()</text><text fill="#FFFFFF" fill-opacity="1" font-family="Courier New,Courier New_MSFontService,sans-serif" font-style="normal" font-variant="normal" font-weight="400" font-stretch="normal" font-size="69" text-anchor="start" direction="ltr" writing-mode="lr-tb" unicode-bidi="normal" text-decoration="none" transform="matrix(1 0 0 1 423.316 832)">-</text><text fill="#FFFFFF" fill-opacity="1" font-family="Courier New,Courier New_MSFontService,sans-serif" font-style="normal" font-variant="normal" font-weight="400" font-stretch="normal" font-size="69" text-anchor="start" direction="ltr" writing-mode="lr-tb" unicode-bidi="normal" text-decoration="none" transform="matrix(1 0 0 1 464.566 832)">.min()</text><path d="M134 1017.68C134 988.585 157.586 965 186.68 965L1454.32 965C1483.41 965 1507 988.585 1507 1017.68L1507 1764.32C1507 1793.41 1483.41 1817 1454.32 1817L186.68 1817C157.586 1817 134 1793.41 134 1764.32Z" stroke="#DD7374" stroke-width="10.3125" stroke-linecap="butt" stroke-linejoin="miter" stroke-miterlimit="8" stroke-opacity="1" fill="#FFFFFF" fill-rule="evenodd" fill-opacity="1"/><text fill="#000000" fill-opacity="1" font-family="Calibri,Calibri_MSFontService,sans-serif" font-style="normal" font-variant="normal" font-weight="400" font-stretch="normal" font-size="83" text-anchor="start" direction="ltr" writing-mode="lr-tb" unicode-bidi="normal" text-decoration="none" transform="matrix(1 0 0 1 182.789 1074)">The range in which 100 lies%</text><text fill="#000000" fill-opacity="1" font-family="Cambria Math,Cambria Math_MSFontService,sans-serif" font-style="normal" font-variant="normal" font-weight="400" font-stretch="normal" font-size="83" text-anchor="start" direction="ltr" writing-mode="lr-tb" unicode-bidi="normal" text-decoration="none" transform="matrix(1 0 0 1 450.616 1272)">R</text><text fill="#000000" fill-opacity="1" font-family="Cambria Math,Cambria Math_MSFontService,sans-serif" font-style="normal" font-variant="normal" font-weight="400" font-stretch="normal" font-size="83" text-anchor="start" direction="ltr" writing-mode="lr-tb" unicode-bidi="normal" text-decoration="none" transform="matrix(1 0 0 1 501.605 1272)">ange</text><text fill="#000000" fill-opacity="1" font-family="Cambria Math,Cambria Math_MSFontService,sans-serif" font-style="normal" font-variant="normal" font-weight="400" font-stretch="normal" font-size="83" text-anchor="start" direction="ltr" writing-mode="lr-tb" unicode-bidi="normal" text-decoration="none" transform="matrix(1 0 0 1 691.241 1272)">=</text><text fill="#000000" fill-opacity="1" font-family="Cambria Math,Cambria Math_MSFontService,sans-serif" font-style="normal" font-variant="normal" font-weight="400" font-stretch="normal" font-size="83" text-anchor="start" direction="ltr" writing-mode="lr-tb" unicode-bidi="normal" text-decoration="none" transform="matrix(1 0 0 1 776.032 1272)">MAX</text><text fill="#000000" fill-opacity="1" font-family="Cambria Math,Cambria Math_MSFontService,sans-serif" font-style="normal" font-variant="normal" font-weight="400" font-stretch="normal" font-size="83" text-anchor="start" direction="ltr" writing-mode="lr-tb" unicode-bidi="normal" text-decoration="none" transform="matrix(1 0 0 1 959.939 1272)">−</text><text fill="#000000" fill-opacity="1" font-family="Cambria Math,Cambria Math_MSFontService,sans-serif" font-style="normal" font-variant="normal" font-weight="400" font-stretch="normal" font-size="83" text-anchor="start" direction="ltr" writing-mode="lr-tb" unicode-bidi="normal" text-decoration="none" transform="matrix(1 0 0 1 1040.15 1272)">MIN</text><text fill="#000000" fill-opacity="1" font-family="Calibri,Calibri_MSFontService,sans-serif" font-style="normal" font-variant="normal" font-weight="400" font-stretch="normal" font-size="83" text-anchor="start" direction="ltr" writing-mode="lr-tb" unicode-bidi="normal" text-decoration="none" transform="matrix(1 0 0 1 182.789 1470)">Calculated for </text><text fill="#000000" fill-opacity="1" font-family="Calibri,Calibri_MSFontService,sans-serif" font-style="normal" font-variant="normal" font-weight="700" font-stretch="normal" font-size="83" text-anchor="start" direction="ltr" writing-mode="lr-tb" unicode-bidi="normal" text-decoration="none" transform="matrix(1 0 0 1 666.376 1470)">quantitative</text><text fill="#000000" fill-opacity="1" font-family="Calibri,Calibri_MSFontService,sans-serif" font-style="normal" font-variant="normal" font-weight="400" font-stretch="normal" font-size="83" text-anchor="start" direction="ltr" writing-mode="lr-tb" unicode-bidi="normal" text-decoration="none" transform="matrix(1 0 0 1 1102.16 1470)">data</text><text fill="#000000" fill-opacity="1" font-family="Calibri,Calibri_MSFontService,sans-serif" font-style="normal" font-variant="normal" font-weight="400" font-stretch="normal" font-size="83" text-anchor="start" direction="ltr" writing-mode="lr-tb" unicode-bidi="normal" text-decoration="none" transform="matrix(1 0 0 1 182.789 1767)">N</text><text fill="#000000" fill-opacity="1" font-family="Calibri,Calibri_MSFontService,sans-serif" font-style="normal" font-variant="normal" font-weight="400" font-stretch="normal" font-size="83" text-anchor="start" direction="ltr" writing-mode="lr-tb" unicode-bidi="normal" text-decoration="none" transform="matrix(1 0 0 1 236.07 1767)">ot resistant to outliers</text><text fill="#DD7374" fill-opacity="1" font-family="Calibri,Calibri_MSFontService,sans-serif" font-style="normal" font-variant="normal" font-weight="700" font-stretch="normal" font-size="83" text-anchor="start" direction="ltr" writing-mode="lr-tb" unicode-bidi="normal" text-decoration="none" transform="matrix(1 0 0 1 3048.97 1692)">MIN</text><text fill="#DD7374" fill-opacity="1" font-family="Calibri,Calibri_MSFontService,sans-serif" font-style="normal" font-variant="normal" font-weight="700" font-stretch="normal" font-size="83" text-anchor="start" direction="ltr" writing-mode="lr-tb" unicode-bidi="normal" text-decoration="none" transform="matrix(1 0 0 1 4200.75 1692)">MAX</text><text fill="#DD7374" fill-opacity="1" font-family="Calibri,Calibri_MSFontService,sans-serif" font-style="normal" font-variant="normal" font-weight="700" font-stretch="normal" font-size="83" text-anchor="start" direction="ltr" writing-mode="lr-tb" unicode-bidi="normal" text-decoration="none" transform="matrix(1 0 0 1 3427.89 1692)">Q1</text><text fill="#DD7374" fill-opacity="1" font-family="Calibri,Calibri_MSFontService,sans-serif" font-style="normal" font-variant="normal" font-weight="700" font-stretch="normal" font-size="83" text-anchor="start" direction="ltr" writing-mode="lr-tb" unicode-bidi="normal" text-decoration="none" transform="matrix(1 0 0 1 3888.04 1692)">Q3</text><path d="M8.02083-1.21222e-05 8.02083 0.0160295C8.02084 4.44581 4.4298 8.03687 1.21465e-05 8.03687-4.42977 8.03688-8.02083 4.44584-8.02083 0.0160538L-8.02083 1.21222e-05C-8.02084-4.42977-4.4298-8.02083-1.21222e-05-8.02083 4.42977-8.02084 8.02083-4.4298 8.02083-1.21222e-05ZM8.02088 32.0994 8.02088 32.1154C8.02089 36.5452 4.42984 40.1362 6.06579e-05 40.1363-4.42972 40.1363-8.02078 36.5452-8.02078 32.1154L-8.02078 32.0994C-8.02079 27.6696-4.42975 24.0785 3.63926e-05 24.0785 4.42982 24.0785 8.02088 27.6696 8.02088 32.0994ZM8.02093 64.1987 8.02093 64.2148C8.02094 68.6446 4.42989 72.2356 0.000109171 72.2356-4.42968 72.2356-8.02073 68.6446-8.02074 64.2148L-8.02074 64.1988C-8.02074 59.769-4.4297 56.1779 8.49057e-05 56.1779 4.42987 56.1779 8.02092 59.769 8.02093 64.1987ZM8.02098 96.2981 8.02098 96.3141C8.02099 100.744 4.42994 104.335 0.000157688 104.335-4.42963 104.335-8.02068 100.744-8.02069 96.3142L-8.02069 96.2981C-8.02069 91.8683-4.42965 88.2773 0.000133415 88.2773 4.42992 88.2773 8.02097 91.8683 8.02098 96.2981ZM8.02103 128.397 8.02103 128.414C8.02103 132.843 4.42999 136.434 0.000206201 136.434-4.42958 136.434-8.02063 132.843-8.02064 128.414L-8.02064 128.398C-8.02065 123.968-4.4296 120.377 0.000181928 120.377 4.42997 120.377 8.02102 123.968 8.02103 128.397ZM8.02108 160.497 8.02108 160.513C8.02108 164.943 4.43004 168.534 0.000254715 168.534-4.42953 168.534-8.02058 164.943-8.02059 160.513L-8.02059 160.497C-8.0206 156.067-4.42955 152.476 0.000230441 152.476 4.43001 152.476 8.02107 156.067 8.02108 160.497ZM8.02112 192.596 8.02112 192.612C8.02113 197.042 4.43009 200.633 0.000303228 200.633-4.42948 200.633-8.02054 197.042-8.02054 192.612L-8.02054 192.596C-8.02055 188.166-4.4295 184.575 0.000278954 184.575 4.43006 184.575 8.02112 188.166 8.02112 192.596ZM8.02117 224.696 8.02117 224.712C8.02118 229.141 4.43014 232.732 0.000351741 232.732-4.42943 232.732-8.02049 229.141-8.02049 224.712L-8.02049 224.696C-8.0205 220.266-4.42946 216.675 0.000327467 216.675 4.43011 216.675 8.02117 220.266 8.02117 224.696Z" fill="#595959" fill-rule="nonzero" fill-opacity="1" transform="matrix(1 0 0 -1 3478 1559.79)"/><path d="M8.02083-1.21222e-05 8.02083 0.0160295C8.02084 4.44581 4.4298 8.03687 1.21465e-05 8.03687-4.42977 8.03688-8.02083 4.44584-8.02083 0.0160538L-8.02083 1.21222e-05C-8.02084-4.42977-4.4298-8.02083-1.21222e-05-8.02083 4.42977-8.02084 8.02083-4.4298 8.02083-1.21222e-05ZM8.02088 32.0994 8.02088 32.1154C8.02089 36.5452 4.42984 40.1362 6.06579e-05 40.1363-4.42972 40.1363-8.02078 36.5452-8.02078 32.1154L-8.02078 32.0994C-8.02079 27.6696-4.42975 24.0785 3.63926e-05 24.0785 4.42982 24.0785 8.02088 27.6696 8.02088 32.0994ZM8.02093 64.1987 8.02093 64.2148C8.02094 68.6446 4.42989 72.2356 0.000109171 72.2356-4.42968 72.2356-8.02073 68.6446-8.02074 64.2148L-8.02074 64.1988C-8.02074 59.769-4.4297 56.1779 8.49057e-05 56.1779 4.42987 56.1779 8.02092 59.769 8.02093 64.1987ZM8.02098 96.2981 8.02098 96.3141C8.02099 100.744 4.42994 104.335 0.000157688 104.335-4.42963 104.335-8.02068 100.744-8.02069 96.3142L-8.02069 96.2981C-8.02069 91.8683-4.42965 88.2773 0.000133415 88.2773 4.42992 88.2773 8.02097 91.8683 8.02098 96.2981ZM8.02103 128.397 8.02103 128.414C8.02103 132.843 4.42999 136.434 0.000206201 136.434-4.42958 136.434-8.02063 132.843-8.02064 128.414L-8.02064 128.398C-8.02065 123.968-4.4296 120.377 0.000181928 120.377 4.42997 120.377 8.02102 123.968 8.02103 128.397ZM8.02108 160.497 8.02108 160.513C8.02108 164.943 4.43004 168.534 0.000254715 168.534-4.42953 168.534-8.02058 164.943-8.02059 160.513L-8.02059 160.497C-8.0206 156.067-4.42955 152.476 0.000230441 152.476 4.43001 152.476 8.02107 156.067 8.02108 160.497ZM8.02112 192.596 8.02112 192.612C8.02113 197.042 4.43009 200.633 0.000303228 200.633-4.42948 200.633-8.02054 197.042-8.02054 192.612L-8.02054 192.596C-8.02055 188.166-4.4295 184.575 0.000278954 184.575 4.43006 184.575 8.02112 188.166 8.02112 192.596ZM8.02117 224.696 8.02117 224.712C8.02118 229.141 4.43014 232.732 0.000351741 232.732-4.42943 232.732-8.02049 229.141-8.02049 224.712L-8.02049 224.696C-8.0205 220.266-4.42946 216.675 0.000327467 216.675 4.43011 216.675 8.02117 220.266 8.02117 224.696Z" fill="#595959" fill-rule="nonzero" fill-opacity="1" transform="matrix(1 0 0 -1 3929 1559.79)"/><path d="M12.1917-8.0208 12.2077-8.0208C16.6375-8.02079 20.2286-4.42973 20.2286 5.38331e-05 20.2285 4.42984 16.6375 8.02088 12.2077 8.02087L12.1917 8.02087C7.76187 8.02085 4.17083 4.4298 4.17084 1.10986e-05 4.17086-4.42977 7.76192-8.02081 12.1917-8.0208ZM44.2911-8.02072 44.3071-8.02072C48.7369-8.0207 52.3279-4.42964 52.3279 0.000139253 52.3279 4.42992 48.7369 8.02096 44.3071 8.02095L44.291 8.02095C39.8612 8.02094 36.2702 4.42988 36.2702 9.65248e-05 36.2702-4.42969 39.8613-8.02073 44.2911-8.02072ZM76.3904-8.02063 76.4065-8.02063C80.8363-8.02062 84.4273-4.42956 84.4273 0.000224681 84.4273 4.43001 80.8362 8.02105 76.4064 8.02104L76.3904 8.02104C71.9606 8.02102 68.3696 4.42997 68.3696 0.000181942 68.3696-4.4296 71.9607-8.02064 76.3904-8.02063ZM108.49-8.02054 108.506-8.02054C112.936-8.02053 116.527-4.42947 116.527 0.000310112 116.527 4.43009 112.936 8.02113 108.506 8.02112L108.49 8.02112C104.06 8.02111 100.469 4.43005 100.469 0.000267358 100.469-4.42952 104.06-8.02056 108.49-8.02054ZM38.9932 34.1093 0.0112914 6.09547e-07 38.9933-34.1091C42.3271-37.0261 47.3944-36.6883 50.3114-33.3545 53.2284-30.0208 52.8906-24.9535 49.5568-22.0365L17.4734 6.03634 17.4734-6.03625 49.5567 22.0368C52.8904 24.9538 53.2282 30.0211 50.3112 33.3548 47.3942 36.6886 42.3269 37.0264 38.9932 34.1093Z" fill="#595959" fill-rule="nonzero" fill-opacity="1" transform="matrix(-1 0 0 1 3611.61 1333)"/><path d="M3830.19 1324.98 3830.21 1324.98C3834.64 1324.98 3838.23 1328.57 3838.23 1333 3838.23 1337.43 3834.64 1341.02 3830.21 1341.02L3830.19 1341.02C3825.76 1341.02 3822.17 1337.43 3822.17 1333 3822.17 1328.57 3825.76 1324.98 3830.19 1324.98ZM3862.29 1324.98 3862.31 1324.98C3866.74 1324.98 3870.33 1328.57 3870.33 1333 3870.33 1337.43 3866.74 1341.02 3862.31 1341.02L3862.29 1341.02C3857.86 1341.02 3854.27 1337.43 3854.27 1333 3854.27 1328.57 3857.86 1324.98 3862.29 1324.98ZM3894.39 1324.98 3894.41 1324.98C3898.84 1324.98 3902.43 1328.57 3902.43 1333 3902.43 1337.43 3898.84 1341.02 3894.41 1341.02L3894.39 1341.02C3889.96 1341.02 3886.37 1337.43 3886.37 1333 3886.37 1328.57 3889.96 1324.98 3894.39 1324.98ZM3926.49 1324.98 3926.51 1324.98C3930.94 1324.98 3934.53 1328.57 3934.53 1333 3934.53 1337.43 3930.94 1341.02 3926.51 1341.02L3926.49 1341.02C3922.06 1341.02 3918.47 1337.43 3918.47 1333 3918.47 1328.57 3922.06 1324.98 3926.49 1324.98ZM3856.99 1367.11 3818.01 1333 3856.99 1298.89C3860.33 1295.97 3865.39 1296.31 3868.31 1299.65 3871.23 1302.98 3870.89 1308.05 3867.56 1310.96L3835.47 1339.04 3835.47 1326.96 3867.56 1355.04C3870.89 1357.95 3871.23 1363.02 3868.31 1366.35 3865.39 1369.69 3860.33 1370.03 3856.99 1367.11Z" fill="#595959" fill-rule="nonzero" fill-opacity="1"/><rect x="3610" y="1266" width="207" height="134" fill="#DD7374" fill-opacity="1"/><text fill="#595959" fill-opacity="1" font-family="Calibri,Calibri_MSFontService,sans-serif" font-style="normal" font-variant="normal" font-weight="700" font-stretch="normal" font-size="83" text-anchor="start" direction="ltr" writing-mode="lr-tb" unicode-bidi="normal" text-decoration="none" transform="matrix(1 0 0 1 3642.53 1360)">IQR</text><rect x="3546" y="1042" width="326" height="133" fill="#DD7374" fill-opacity="1"/><text fill="#595959" fill-opacity="1" font-family="Calibri,Calibri_MSFontService,sans-serif" font-style="normal" font-variant="normal" font-weight="700" font-stretch="normal" font-size="83" text-anchor="start" direction="ltr" writing-mode="lr-tb" unicode-bidi="normal" text-decoration="none" transform="matrix(1 0 0 1 3579.24 1135)">Range</text><path d="M5.72917-4.57983e-06 5.72917 0.0114538C5.72917 3.17559 3.16414 5.74062 4.58899e-06 5.74062-3.16413 5.74063-5.72916 3.17559-5.72917 0.0114629L-5.72917 4.57983e-06C-5.72917-3.16413-3.16414-5.72916-4.57983e-06-5.72917 3.16413-5.72917 5.72916-3.16414 5.72917-4.57983e-06ZM5.72919 22.9281 5.72919 22.9396C5.72919 26.1037 3.16415 28.6687 2.29175e-05 28.6688-3.16411 28.6688-5.72915 26.1037-5.72915 22.9396L-5.72915 22.9281C-5.72915 19.764-3.16412 17.199 1.37487e-05 17.199 3.16415 17.199 5.72918 19.764 5.72919 22.9281ZM5.7292 45.8562 5.7292 45.8677C5.72921 49.0318 3.16417 51.5969 4.12466e-05 51.5969-3.16409 51.5969-5.72913 49.0318-5.72913 45.8677L-5.72913 45.8563C-5.72913 42.6921-3.1641 40.1271 3.20765e-05 40.1271 3.16416 40.1271 5.7292 42.6921 5.7292 45.8562ZM5.72922 68.7844 5.72922 68.7958C5.72922 71.96 3.16419 74.525 5.95738e-05 74.525-3.16407 74.525-5.72911 71.96-5.72911 68.7958L-5.72911 68.7844C-5.72911 65.6203-3.16408 63.0552 5.04064e-05 63.0552 3.16418 63.0552 5.72922 65.6202 5.72922 68.7844ZM5.72924 91.7125 5.72924 91.724C5.72924 94.8881 3.16421 97.4531 7.79023e-05 97.4531-3.16405 97.4531-5.72909 94.8881-5.72909 91.724L-5.72909 91.7125C-5.7291 88.5484-3.16406 85.9833 6.87349e-05 85.9833 3.1642 85.9833 5.72924 88.5484 5.72924 91.7125ZM5.72926 114.641 5.72926 114.652C5.72926 117.816 3.16423 120.381 9.62335e-05 120.381-3.16404 120.381-5.72907 117.816-5.72907 114.652L-5.72907 114.641C-5.72908 111.477-3.16404 108.911 8.70607e-05 108.911 3.16422 108.911 5.72926 111.476 5.72926 114.641ZM5.72928 137.569 5.72928 137.58C5.72928 140.744 3.16425 143.309 0.000114562 143.309-3.16402 143.309-5.72905 140.744-5.72906 137.58L-5.72906 137.569C-5.72906 134.405-3.16403 131.84 0.000105389 131.84 3.16424 131.84 5.72927 134.405 5.72928 137.569ZM5.72929 160.497 5.72929 160.508C5.7293 163.672 3.16426 166.238 0.00013289 166.238-3.164 166.238-5.72904 163.672-5.72904 160.508L-5.72904 160.497C-5.72904 157.333-3.16401 154.768 0.000123718 154.768 3.16426 154.768 5.72929 157.333 5.72929 160.497ZM5.72931 183.425 5.72931 183.436C5.72932 186.601 3.16428 189.166 0.000151219 189.166-3.16398 189.166-5.72902 186.601-5.72902 183.436L-5.72902 183.425C-5.72902 180.261-3.16399 177.696 0.000142046 177.696 3.16427 177.696 5.72931 180.261 5.72931 183.425ZM5.72933 206.353 5.72933 206.365C5.72933 209.529 3.1643 212.094 0.000169547 212.094-3.16396 212.094-5.729 209.529-5.729 206.365L-5.729 206.353C-5.729 203.189-3.16397 200.624 0.000160375 200.624 3.16429 200.624 5.72933 203.189 5.72933 206.353ZM5.72935 229.281 5.72935 229.293C5.72935 232.457 3.16432 235.022 0.000187876 235.022-3.16394 235.022-5.72898 232.457-5.72898 229.293L-5.72898 229.281C-5.72899 226.117-3.16395 223.552 0.000178703 223.552 3.16431 223.552 5.72935 226.117 5.72935 229.281ZM5.72937 252.209 5.72937 252.221C5.72937 255.385 3.16434 257.95 0.000206204 257.95-3.16393 257.95-5.72896 255.385-5.72897 252.221L-5.72897 252.209C-5.72897 249.045-3.16393 246.48 0.000197032 246.48 3.16433 246.48 5.72937 249.045 5.72937 252.209ZM5.72939 275.138 5.72939 275.149C5.72939 278.313 3.16436 280.878 0.000224533 280.878-3.16391 280.878-5.72894 278.313-5.72895 275.149L-5.72895 275.138C-5.72895 271.973-3.16392 269.408 0.00021536 269.408 3.16435 269.408 5.72938 271.973 5.72939 275.138ZM5.7294 298.066 5.7294 298.077C5.72941 301.241 3.16437 303.806 0.000242861 303.806-3.16389 303.806-5.72893 301.241-5.72893 298.077L-5.72893 298.066C-5.72893 294.901-3.1639 292.336 0.000233689 292.336 3.16437 292.336 5.7294 294.901 5.7294 298.066ZM5.72942 320.994 5.72942 321.005C5.72943 324.169 3.16439 326.734 0.00026119 326.734-3.16387 326.734-5.72891 324.169-5.72891 321.005L-5.72891 320.994C-5.72891 317.83-3.16388 315.265 0.000252017 315.265 3.16438 315.265 5.72942 317.83 5.72942 320.994ZM5.72944 343.922 5.72944 343.933C5.72944 347.097 3.16441 349.663 0.000279518 349.663-3.16385 349.663-5.72889 347.097-5.72889 343.933L-5.72889 343.922C-5.72889 340.758-3.16386 338.193 0.000270346 338.193 3.1644 338.193 5.72944 340.758 5.72944 343.922ZM5.72946 366.85 5.72946 366.861C5.72946 370.026 3.16443 372.591 0.000297847 372.591-3.16383 372.591-5.72887 370.026-5.72887 366.861L-5.72887 366.85C-5.72888 363.686-3.16384 361.121 0.000288674 361.121 3.16442 361.121 5.72946 363.686 5.72946 366.85ZM5.72948 389.778 5.72948 389.79C5.72948 392.954 3.16445 395.519 0.000316175 395.519-3.16382 395.519-5.72885 392.954-5.72886 389.79L-5.72886 389.778C-5.72886 386.614-3.16382 384.049 0.000307003 384.049 3.16444 384.049 5.72948 386.614 5.72948 389.778ZM5.7295 412.706 5.7295 412.718C5.7295 415.882 3.16447 418.447 0.000334504 418.447-3.1638 418.447-5.72883 415.882-5.72884 412.718L-5.72884 412.706C-5.72884 409.542-3.16381 406.977 0.000325331 406.977 3.16446 406.977 5.72949 409.542 5.7295 412.706ZM5.72952 435.634 5.72952 435.646C5.72952 438.81 3.16448 441.375 0.000352832 441.375-3.16378 441.375-5.72882 438.81-5.72882 435.646L-5.72882 435.634C-5.72882 432.47-3.16379 429.905 0.00034366 429.905 3.16447 429.905 5.72951 432.47 5.72952 435.634Z" fill="#595959" fill-rule="nonzero" fill-opacity="1" transform="matrix(1 0 0 -1 4281.5 1559.96)"/><path d="M3862.21 1103.77 3862.22 1103.77C3865.38 1103.77 3867.95 1106.34 3867.95 1109.5 3867.95 1112.66 3865.38 1115.23 3862.22 1115.23L3862.21 1115.23C3859.04 1115.23 3856.48 1112.66 3856.48 1109.5 3856.48 1106.34 3859.04 1103.77 3862.21 1103.77ZM3885.14 1103.77 3885.15 1103.77C3888.31 1103.77 3890.88 1106.34 3890.88 1109.5 3890.88 1112.66 3888.31 1115.23 3885.15 1115.23L3885.14 1115.23C3881.97 1115.23 3879.41 1112.66 3879.41 1109.5 3879.41 1106.34 3881.97 1103.77 3885.14 1103.77ZM3908.06 1103.77 3908.08 1103.77C3911.24 1103.77 3913.81 1106.34 3913.81 1109.5 3913.81 1112.66 3911.24 1115.23 3908.08 1115.23L3908.06 1115.23C3904.9 1115.23 3902.34 1112.66 3902.34 1109.5 3902.34 1106.34 3904.9 1103.77 3908.06 1103.77ZM3930.99 1103.77 3931 1103.77C3934.17 1103.77 3936.73 1106.34 3936.73 1109.5 3936.73 1112.66 3934.17 1115.23 3931 1115.23L3930.99 1115.23C3927.83 1115.23 3925.26 1112.66 3925.26 1109.5 3925.26 1106.34 3927.83 1103.77 3930.99 1103.77ZM3953.92 1103.77 3953.93 1103.77C3957.1 1103.77 3959.66 1106.34 3959.66 1109.5 3959.66 1112.66 3957.1 1115.23 3953.93 1115.23L3953.92 1115.23C3950.76 1115.23 3948.19 1112.66 3948.19 1109.5 3948.19 1106.34 3950.76 1103.77 3953.92 1103.77ZM3976.85 1103.77 3976.86 1103.77C3980.02 1103.77 3982.59 1106.34 3982.59 1109.5 3982.59 1112.66 3980.02 1115.23 3976.86 1115.23L3976.85 1115.23C3973.68 1115.23 3971.12 1112.66 3971.12 1109.5 3971.12 1106.34 3973.68 1103.77 3976.85 1103.77ZM3999.78 1103.77 3999.79 1103.77C4002.95 1103.77 4005.52 1106.34 4005.52 1109.5 4005.52 1112.66 4002.95 1115.23 3999.79 1115.23L3999.78 1115.23C3996.61 1115.23 3994.05 1112.66 3994.05 1109.5 3994.05 1106.34 3996.61 1103.77 3999.78 1103.77ZM4022.71 1103.77 4022.72 1103.77C4025.88 1103.77 4028.45 1106.34 4028.45 1109.5 4028.45 1112.66 4025.88 1115.23 4022.72 1115.23L4022.71 1115.23C4019.54 1115.23 4016.98 1112.66 4016.98 1109.5 4016.98 1106.34 4019.54 1103.77 4022.71 1103.77ZM4045.63 1103.77 4045.64 1103.77C4048.81 1103.77 4051.37 1106.34 4051.37 1109.5 4051.37 1112.66 4048.81 1115.23 4045.64 1115.23L4045.63 1115.23C4042.47 1115.23 4039.9 1112.66 4039.9 1109.5 4039.9 1106.34 4042.47 1103.77 4045.63 1103.77ZM4068.56 1103.77 4068.57 1103.77C4071.74 1103.77 4074.3 1106.34 4074.3 1109.5 4074.3 1112.66 4071.74 1115.23 4068.57 1115.23L4068.56 1115.23C4065.4 1115.23 4062.83 1112.66 4062.83 1109.5 4062.83 1106.34 4065.4 1103.77 4068.56 1103.77ZM4091.49 1103.77 4091.5 1103.77C4094.67 1103.77 4097.23 1106.34 4097.23 1109.5 4097.23 1112.66 4094.67 1115.23 4091.5 1115.23L4091.49 1115.23C4088.33 1115.23 4085.76 1112.66 4085.76 1109.5 4085.76 1106.34 4088.33 1103.77 4091.49 1103.77ZM4114.42 1103.77 4114.43 1103.77C4117.59 1103.77 4120.16 1106.34 4120.16 1109.5 4120.16 1112.66 4117.59 1115.23 4114.43 1115.23L4114.42 1115.23C4111.25 1115.23 4108.69 1112.66 4108.69 1109.5 4108.69 1106.34 4111.25 1103.77 4114.42 1103.77ZM4137.35 1103.77 4137.36 1103.77C4140.52 1103.77 4143.09 1106.34 4143.09 1109.5 4143.09 1112.66 4140.52 1115.23 4137.36 1115.23L4137.35 1115.23C4134.18 1115.23 4131.62 1112.66 4131.62 1109.5 4131.62 1106.34 4134.18 1103.77 4137.35 1103.77ZM4160.27 1103.77 4160.29 1103.77C4163.45 1103.77 4166.01 1106.34 4166.01 1109.5 4166.01 1112.66 4163.45 1115.23 4160.29 1115.23L4160.27 1115.23C4157.11 1115.23 4154.54 1112.66 4154.54 1109.5 4154.54 1106.34 4157.11 1103.77 4160.27 1103.77ZM4183.2 1103.77 4183.21 1103.77C4186.38 1103.77 4188.94 1106.34 4188.94 1109.5 4188.94 1112.66 4186.38 1115.23 4183.21 1115.23L4183.2 1115.23C4180.04 1115.23 4177.47 1112.66 4177.47 1109.5 4177.47 1106.34 4180.04 1103.77 4183.2 1103.77ZM4206.13 1103.77 4206.14 1103.77C4209.31 1103.77 4211.87 1106.34 4211.87 1109.5 4211.87 1112.66 4209.31 1115.23 4206.14 1115.23L4206.13 1115.23C4202.97 1115.23 4200.4 1112.66 4200.4 1109.5 4200.4 1106.34 4202.97 1103.77 4206.13 1103.77ZM4229.06 1103.77 4229.07 1103.77C4232.23 1103.77 4234.8 1106.34 4234.8 1109.5 4234.8 1112.66 4232.23 1115.23 4229.07 1115.23L4229.06 1115.23C4225.89 1115.23 4223.33 1112.66 4223.33 1109.5 4223.33 1106.34 4225.89 1103.77 4229.06 1103.77ZM4251.99 1103.77 4252 1103.77C4255.16 1103.77 4257.73 1106.34 4257.73 1109.5 4257.73 1112.66 4255.16 1115.23 4252 1115.23L4251.99 1115.23C4248.82 1115.23 4246.26 1112.66 4246.26 1109.5 4246.26 1106.34 4248.82 1103.77 4251.99 1103.77ZM4274.91 1103.77 4274.93 1103.77C4278.09 1103.77 4280.66 1106.34 4280.66 1109.5 4280.66 1112.66 4278.09 1115.23 4274.93 1115.23L4274.91 1115.23C4271.75 1115.23 4269.19 1112.66 4269.19 1109.5 4269.19 1106.34 4271.75 1103.77 4274.91 1103.77ZM3881.35 1133.86 3853.51 1109.5 3881.35 1085.14 3881.35 1085.14C3883.73 1083.05 3887.35 1083.29 3889.44 1085.68 3891.52 1088.06 3891.28 1091.68 3888.9 1093.76L3865.98 1113.81 3865.98 1105.19 3888.9 1125.24 3888.9 1125.24C3891.28 1127.32 3891.52 1130.94 3889.44 1133.32 3887.35 1135.71 3883.73 1135.95 3881.35 1133.86Z" fill="#595959" fill-rule="nonzero" fill-opacity="1"/><path d="M5.72917-4.57983e-06 5.72917 0.0114538C5.72917 3.17559 3.16414 5.74062 4.58899e-06 5.74062-3.16413 5.74063-5.72916 3.17559-5.72917 0.0114629L-5.72917 4.57983e-06C-5.72917-3.16413-3.16414-5.72916-4.57983e-06-5.72917 3.16413-5.72917 5.72916-3.16414 5.72917-4.57983e-06ZM5.72919 22.9281 5.72919 22.9396C5.72919 26.1037 3.16415 28.6687 2.29175e-05 28.6688-3.16411 28.6688-5.72915 26.1037-5.72915 22.9396L-5.72915 22.9281C-5.72915 19.764-3.16412 17.199 1.37487e-05 17.199 3.16415 17.199 5.72918 19.764 5.72919 22.9281ZM5.7292 45.8562 5.7292 45.8677C5.72921 49.0318 3.16417 51.5969 4.12466e-05 51.5969-3.16409 51.5969-5.72913 49.0318-5.72913 45.8677L-5.72913 45.8563C-5.72913 42.6921-3.1641 40.1271 3.20765e-05 40.1271 3.16416 40.1271 5.7292 42.6921 5.7292 45.8562ZM5.72922 68.7844 5.72922 68.7958C5.72922 71.96 3.16419 74.525 5.95738e-05 74.525-3.16407 74.525-5.72911 71.96-5.72911 68.7958L-5.72911 68.7844C-5.72911 65.6203-3.16408 63.0552 5.04064e-05 63.0552 3.16418 63.0552 5.72922 65.6202 5.72922 68.7844ZM5.72924 91.7125 5.72924 91.724C5.72924 94.8881 3.16421 97.4531 7.79023e-05 97.4531-3.16405 97.4531-5.72909 94.8881-5.72909 91.724L-5.72909 91.7125C-5.7291 88.5484-3.16406 85.9833 6.87349e-05 85.9833 3.1642 85.9833 5.72924 88.5484 5.72924 91.7125ZM5.72926 114.641 5.72926 114.652C5.72926 117.816 3.16423 120.381 9.62335e-05 120.381-3.16404 120.381-5.72907 117.816-5.72907 114.652L-5.72907 114.641C-5.72908 111.477-3.16404 108.911 8.70607e-05 108.911 3.16422 108.911 5.72926 111.476 5.72926 114.641ZM5.72928 137.569 5.72928 137.58C5.72928 140.744 3.16425 143.309 0.000114562 143.309-3.16402 143.309-5.72905 140.744-5.72906 137.58L-5.72906 137.569C-5.72906 134.405-3.16403 131.84 0.000105389 131.84 3.16424 131.84 5.72927 134.405 5.72928 137.569ZM5.72929 160.497 5.72929 160.508C5.7293 163.672 3.16426 166.238 0.00013289 166.238-3.164 166.238-5.72904 163.672-5.72904 160.508L-5.72904 160.497C-5.72904 157.333-3.16401 154.768 0.000123718 154.768 3.16426 154.768 5.72929 157.333 5.72929 160.497ZM5.72931 183.425 5.72931 183.436C5.72932 186.601 3.16428 189.166 0.000151219 189.166-3.16398 189.166-5.72902 186.601-5.72902 183.436L-5.72902 183.425C-5.72902 180.261-3.16399 177.696 0.000142046 177.696 3.16427 177.696 5.72931 180.261 5.72931 183.425ZM5.72933 206.353 5.72933 206.365C5.72933 209.529 3.1643 212.094 0.000169547 212.094-3.16396 212.094-5.729 209.529-5.729 206.365L-5.729 206.353C-5.729 203.189-3.16397 200.624 0.000160375 200.624 3.16429 200.624 5.72933 203.189 5.72933 206.353ZM5.72935 229.281 5.72935 229.293C5.72935 232.457 3.16432 235.022 0.000187876 235.022-3.16394 235.022-5.72898 232.457-5.72898 229.293L-5.72898 229.281C-5.72899 226.117-3.16395 223.552 0.000178703 223.552 3.16431 223.552 5.72935 226.117 5.72935 229.281ZM5.72937 252.209 5.72937 252.221C5.72937 255.385 3.16434 257.95 0.000206204 257.95-3.16393 257.95-5.72896 255.385-5.72897 252.221L-5.72897 252.209C-5.72897 249.045-3.16393 246.48 0.000197032 246.48 3.16433 246.48 5.72937 249.045 5.72937 252.209ZM5.72939 275.138 5.72939 275.149C5.72939 278.313 3.16436 280.878 0.000224533 280.878-3.16391 280.878-5.72894 278.313-5.72895 275.149L-5.72895 275.138C-5.72895 271.973-3.16392 269.408 0.00021536 269.408 3.16435 269.408 5.72938 271.973 5.72939 275.138ZM5.7294 298.066 5.7294 298.077C5.72941 301.241 3.16437 303.806 0.000242861 303.806-3.16389 303.806-5.72893 301.241-5.72893 298.077L-5.72893 298.066C-5.72893 294.901-3.1639 292.336 0.000233689 292.336 3.16437 292.336 5.7294 294.901 5.7294 298.066ZM5.72942 320.994 5.72942 321.005C5.72943 324.169 3.16439 326.734 0.00026119 326.734-3.16387 326.734-5.72891 324.169-5.72891 321.005L-5.72891 320.994C-5.72891 317.83-3.16388 315.265 0.000252017 315.265 3.16438 315.265 5.72942 317.83 5.72942 320.994ZM5.72944 343.922 5.72944 343.933C5.72944 347.097 3.16441 349.663 0.000279518 349.663-3.16385 349.663-5.72889 347.097-5.72889 343.933L-5.72889 343.922C-5.72889 340.758-3.16386 338.193 0.000270346 338.193 3.1644 338.193 5.72944 340.758 5.72944 343.922ZM5.72946 366.85 5.72946 366.861C5.72946 370.026 3.16443 372.591 0.000297847 372.591-3.16383 372.591-5.72887 370.026-5.72887 366.861L-5.72887 366.85C-5.72888 363.686-3.16384 361.121 0.000288674 361.121 3.16442 361.121 5.72946 363.686 5.72946 366.85ZM5.72948 389.778 5.72948 389.79C5.72948 392.954 3.16445 395.519 0.000316175 395.519-3.16382 395.519-5.72885 392.954-5.72886 389.79L-5.72886 389.778C-5.72886 386.614-3.16382 384.049 0.000307003 384.049 3.16444 384.049 5.72948 386.614 5.72948 389.778ZM5.7295 412.706 5.7295 412.718C5.7295 415.882 3.16447 418.447 0.000334504 418.447-3.1638 418.447-5.72883 415.882-5.72884 412.718L-5.72884 412.706C-5.72884 409.542-3.16381 406.977 0.000325331 406.977 3.16446 406.977 5.72949 409.542 5.7295 412.706ZM5.72952 435.634 5.72952 435.646C5.72952 438.81 3.16448 441.375 0.000352832 441.375-3.16378 441.375-5.72882 438.81-5.72882 435.646L-5.72882 435.634C-5.72882 432.47-3.16379 429.905 0.00034366 429.905 3.16447 429.905 5.72951 432.47 5.72952 435.634Z" fill="#595959" fill-rule="nonzero" fill-opacity="1" transform="matrix(1 0 0 -1 3133.5 1559.96)"/><path d="M8.70784-5.72916 8.7193-5.72916C11.8834-5.72916 14.4485-3.16412 14.4485 1.22068e-05 14.4485 3.16414 11.8834 5.72918 8.71929 5.72917L8.70783 5.72917C5.5437 5.72917 2.97867 3.16413 2.97867 2.51652e-06 2.97867-3.16413 5.54371-5.72916 8.70784-5.72916ZM31.636-5.72914 31.6474-5.72914C34.8116-5.72914 37.3766-3.1641 37.3766 3.15772e-05 37.3766 3.16416 34.8115 5.7292 31.6474 5.72919L31.636 5.72919C28.4718 5.72919 25.9068 3.16415 25.9068 2.18877e-05 25.9068-3.16411 28.4718-5.72914 31.636-5.72914ZM54.5641-5.72912 54.5756-5.72912C57.7397-5.72912 60.3047-3.16408 60.3047 5.0948e-05 60.3047 3.16418 57.7397 5.72922 54.5755 5.72921L54.5641 5.72921C51.4 5.72921 48.8349 3.16417 48.8349 4.12585e-05 48.8349-3.16409 51.4-5.72912 54.5641-5.72912ZM77.4922-5.7291 77.5037-5.7291C80.6678-5.7291 83.2328-3.16406 83.2328 7.03189e-05 83.2328 3.1642 80.6678 5.72924 77.5037 5.72923L77.4922 5.72923C74.3281 5.72923 71.763 3.16419 71.763 6.06293e-05 71.763-3.16407 74.3281-5.7291 77.4922-5.7291ZM100.42-5.72908 100.432-5.72908C103.596-5.72908 106.161-3.16404 106.161 8.96897e-05 106.161 3.16422 103.596 5.72925 100.432 5.72925L100.42 5.72925C97.2562 5.72925 94.6912 3.16421 94.6912 8.00001e-05 94.6912-3.16405 97.2562-5.72908 100.42-5.72908ZM123.348-5.72906 123.36-5.72906C126.524-5.72906 129.089-3.16402 129.089 0.00010906 129.089 3.16424 126.524 5.72927 123.36 5.72927L123.348 5.72927C120.184 5.72927 117.619 3.16423 117.619 9.93709e-05 117.619-3.16403 120.184-5.72906 123.348-5.72906ZM146.277-5.72904 146.288-5.72904C149.452-5.72904 152.017-3.164 152.017 0.000128431 152.017 3.16426 149.452 5.72929 146.288 5.72929L146.277 5.72929C143.112 5.72929 140.547 3.16425 140.547 0.000118742 140.547-3.16401 143.112-5.72905 146.277-5.72904ZM169.205-5.72902 169.216-5.72902C172.38-5.72902 174.945-3.16398 174.945 0.000147802 174.945 3.16428 172.38 5.72931 169.216 5.72931L169.205 5.72931C166.041 5.72931 163.476 3.16427 163.476 0.000138113 163.476-3.16399 166.041-5.72903 169.205-5.72902ZM192.133-5.729 192.144-5.729C195.308-5.729 197.873-3.16396 197.873 0.000167173 197.873 3.1643 195.308 5.72933 192.144 5.72933L192.133 5.72933C188.969 5.72933 186.404 3.16429 186.404 0.000157483 186.404-3.16397 188.969-5.72901 192.133-5.729ZM215.061-5.72898 215.072-5.72898C218.237-5.72898 220.802-3.16394 220.802 0.000186544 220.802 3.16432 218.237 5.72935 215.072 5.72935L215.061 5.72935C211.897 5.72935 209.332 3.16431 209.332 0.000176854 209.332-3.16395 211.897-5.72899 215.061-5.72898ZM237.989-5.72897 238.001-5.72897C241.165-5.72896 243.73-3.16393 243.73 0.000205915 243.73 3.16434 241.165 5.72937 238.001 5.72937L237.989 5.72937C234.825 5.72936 232.26 3.16433 232.26 0.000196225 232.26-3.16394 234.825-5.72897 237.989-5.72897ZM260.917-5.72895 260.929-5.72895C264.093-5.72894 266.658-3.16391 266.658 0.000225285 266.658 3.16436 264.093 5.72939 260.929 5.72939L260.917 5.72939C257.753 5.72938 255.188 3.16435 255.188 0.000215596 255.188-3.16392 257.753-5.72895 260.917-5.72895ZM283.845-5.72893 283.857-5.72893C287.021-5.72892 289.586-3.16389 289.586 0.000244656 289.586 3.16438 287.021 5.72941 283.857 5.72941L283.845 5.72941C280.681 5.7294 278.116 3.16437 278.116 0.000234967 278.116-3.1639 280.681-5.72893 283.845-5.72893ZM306.773-5.72891 306.785-5.72891C309.949-5.7289 312.514-3.16387 312.514 0.000264027 312.514 3.1644 309.949 5.72943 306.785 5.72943L306.773 5.72943C303.609 5.72942 301.044 3.16439 301.044 0.000254337 301.044-3.16388 303.609-5.72891 306.773-5.72891ZM329.702-5.72889 329.713-5.72889C332.877-5.72889 335.442-3.16385 335.442 0.000283398 335.442 3.16441 332.877 5.72945 329.713 5.72944L329.702 5.72944C326.537 5.72944 323.972 3.16441 323.972 0.000273708 323.972-3.16386 326.537-5.72889 329.702-5.72889ZM352.63-5.72887 352.641-5.72887C355.805-5.72887 358.37-3.16383 358.37 0.000302769 358.37 3.16443 355.805 5.72947 352.641 5.72946L352.63 5.72946C349.466 5.72946 346.901 3.16442 346.901 0.000293079 346.901-3.16384 349.466-5.72887 352.63-5.72887ZM375.558-5.72885 375.569-5.72885C378.733-5.72885 381.298-3.16381 381.298 0.000322139 381.298 3.16445 378.733 5.72949 375.569 5.72948L375.558 5.72948C372.394 5.72948 369.829 3.16444 369.829 0.00031245 369.829-3.16382 372.394-5.72885 375.558-5.72885ZM398.486-5.72883 398.497-5.72883C401.662-5.72883 404.227-3.16379 404.227 0.00034151 404.227 3.16447 401.662 5.72951 398.497 5.7295L398.486 5.7295C395.322 5.7295 392.757 3.16446 392.757 0.000331821 392.757-3.1638 395.322-5.72883 398.486-5.72883ZM421.414-5.72881 421.426-5.72881C424.59-5.72881 427.155-3.16377 427.155 0.000360881 427.155 3.16449 424.59 5.72953 421.426 5.72952L421.414 5.72952C418.25 5.72952 415.685 3.16448 415.685 0.000351191 415.685-3.16378 418.25-5.72881 421.414-5.72881ZM27.8523 24.3637 0.0080653-2.22524e-07 27.8523-24.3637 27.8523-24.3637C30.2336-26.4473 33.8531-26.206 35.9367-23.8247 38.0202-21.4435 37.7789-17.824 35.3977-15.7404L12.481 4.31165 12.481-4.31163 35.3977 15.7405 35.3977 15.7405C37.7789 17.8241 38.0202 21.4435 35.9366 23.8248 33.853 26.206 30.2335 26.4473 27.8523 24.3637Z" fill="#595959" fill-rule="nonzero" fill-opacity="1" transform="matrix(-1 0 0 1 3560.67 1109.5)"/><path d="M1618 1982.33C1618 1956.74 1638.74 1936 1664.33 1936L2943.67 1936C2969.26 1936 2990 1956.74 2990 1982.33L2990 2167.67C2990 2193.26 2969.26 2214 2943.67 2214L1664.33 2214C1638.74 2214 1618 2193.26 1618 2167.67Z" stroke="#DD7374" stroke-width="10.3125" stroke-linecap="butt" stroke-linejoin="miter" stroke-miterlimit="8" stroke-opacity="1" fill="#FFFFFF" fill-rule="evenodd" fill-opacity="1"/><text fill="#DD7374" fill-opacity="1" font-family="Calibri,Calibri_MSFontService,sans-serif" font-style="normal" font-variant="normal" font-weight="700" font-stretch="normal" font-size="83" text-anchor="start" direction="ltr" writing-mode="lr-tb" unicode-bidi="normal" text-decoration="none" transform="matrix(1 0 0 1 1975.51 2103)">Standard Deviation</text><path d="M1618 2308.83C1618 2292.91 1630.91 2280 1646.83 2280L2961.17 2280C2977.09 2280 2990 2292.91 2990 2308.83L2990 2424.17C2990 2440.09 2977.09 2453 2961.17 2453L1646.83 2453C1630.91 2453 1618 2440.09 1618 2424.17Z" fill="#595959" fill-rule="evenodd" fill-opacity="1"/><text fill="#FFFFFF" fill-opacity="1" font-family="Courier New,Courier New_MSFontService,sans-serif" font-style="normal" font-variant="normal" font-weight="400" font-stretch="normal" font-size="69" text-anchor="start" direction="ltr" writing-mode="lr-tb" unicode-bidi="normal" text-decoration="none" transform="matrix(1 0 0 1 1659.04 2386)">dataframe</text><text fill="#FFFFFF" fill-opacity="1" font-family="Courier New,Courier New_MSFontService,sans-serif" font-style="normal" font-variant="normal" font-weight="400" font-stretch="normal" font-size="69" text-anchor="start" direction="ltr" writing-mode="lr-tb" unicode-bidi="normal" text-decoration="none" transform="matrix(1 0 0 1 2030.29 2386)">[</text><text fill="#FFFFFF" fill-opacity="1" font-family="Courier New,Courier New_MSFontService,sans-serif" font-style="normal" font-variant="normal" font-weight="400" font-stretch="normal" font-size="69" text-anchor="start" direction="ltr" writing-mode="lr-tb" unicode-bidi="normal" text-decoration="none" transform="matrix(1 0 0 1 2071.54 2386)">'feature'</text><text fill="#FFFFFF" fill-opacity="1" font-family="Courier New,Courier New_MSFontService,sans-serif" font-style="normal" font-variant="normal" font-weight="400" font-stretch="normal" font-size="69" text-anchor="start" direction="ltr" writing-mode="lr-tb" unicode-bidi="normal" text-decoration="none" transform="matrix(1 0 0 1 2442.79 2386)">].</text><text fill="#FFFFFF" fill-opacity="1" font-family="Courier New,Courier New_MSFontService,sans-serif" font-style="normal" font-variant="normal" font-weight="400" font-stretch="normal" font-size="69" text-anchor="start" direction="ltr" writing-mode="lr-tb" unicode-bidi="normal" text-decoration="none" transform="matrix(1 0 0 1 2525.29 2386)">std()</text><path d="M1618 2583.18C1618 2547.73 1646.73 2519 1682.18 2519L2925.82 2519C2961.27 2519 2990 2547.73 2990 2583.18L2990 3492.82C2990 3528.27 2961.27 3557 2925.82 3557L1682.18 3557C1646.73 3557 1618 3528.27 1618 3492.82Z" stroke="#DD7374" stroke-width="10.3125" stroke-linecap="butt" stroke-linejoin="miter" stroke-miterlimit="8" stroke-opacity="1" fill="#FFFFFF" fill-rule="evenodd" fill-opacity="1"/><text fill="#000000" fill-opacity="1" font-family="Calibri,Calibri_MSFontService,sans-serif" font-style="normal" font-variant="normal" font-weight="400" font-stretch="normal" font-size="83" text-anchor="start" direction="ltr" writing-mode="lr-tb" unicode-bidi="normal" text-decoration="none" transform="matrix(1 0 0 1 1669.38 2631)">The average deviation of the data </text><text fill="#000000" fill-opacity="1" font-family="Calibri,Calibri_MSFontService,sans-serif" font-style="normal" font-variant="normal" font-weight="400" font-stretch="normal" font-size="83" text-anchor="start" direction="ltr" writing-mode="lr-tb" unicode-bidi="normal" text-decoration="none" transform="matrix(1 0 0 1 1669.38 2730)">from the arithmetic mean</text><text fill="#000000" fill-opacity="1" font-family="Cambria Math,Cambria Math_MSFontService,sans-serif" font-style="normal" font-variant="normal" font-weight="400" font-stretch="normal" font-size="83" text-anchor="start" direction="ltr" writing-mode="lr-tb" unicode-bidi="normal" text-decoration="none" transform="matrix(1 0 0 1 2002.91 2947)">𝜎</text><text fill="#000000" fill-opacity="1" font-family="Cambria Math,Cambria Math_MSFontService,sans-serif" font-style="normal" font-variant="normal" font-weight="400" font-stretch="normal" font-size="83" text-anchor="start" direction="ltr" writing-mode="lr-tb" unicode-bidi="normal" text-decoration="none" transform="matrix(1 0 0 1 2075.97 2947)">=</text><path d="M2214.62 2768.34 2227.26 2768.34 2227.26 2768.97 2413.38 2768.97 2603.38 2768.97 2603.38 2773.97 2413.38 2773.97 2223.38 2773.97 2223.38 2773.73 2219.16 2773.73 2201.04 3045.06 2197.27 3045.06 2171.42 2997.44 2163.76 3001.53 2162.18 2998.65 2176.77 2990.91 2197.44 3029.17Z" fill="#000000" fill-rule="evenodd" fill-opacity="1"/><path d="M14.2251-53.7798 33.9619-23.8301 33.9619-20.75 11.834 9.64551 38.501 9.64551C40.1761 9.64551 41.4392 9.53743 42.2903 9.32129 43.1413 9.10514 43.8708 8.77417 44.4788 8.32837 45.0867 7.88257 45.6405 7.26115 46.1404 6.46411 46.6402 5.66707 47.1198 4.56608 47.5791 3.16113 48.0384 1.75618 48.4707-0.0810547 48.876-2.35059L53.6177-2.35059 52.4424 17.4268 1.05371 17.4268 1.05371 15.1572 26.0996-19.2505 2.59375-55.6846 2.59375-57.9946 52.645-57.9946 52.645-39.96 48.2681-39.96C47.5926-42.5267 46.9509-44.6206 46.343-46.2417 45.7351-47.8628 45.1137-49.1462 44.4788-50.0918 43.8438-51.0374 43.1954-51.7602 42.5334-52.26 41.8715-52.7598 41.1082-53.1381 40.2436-53.3948 39.3791-53.6514 38.2308-53.7798 36.7988-53.7798Z" fill="#000000" fill-rule="nonzero" fill-opacity="1" transform="matrix(1 0 0 1 2223.85 2881)"/><text fill="#000000" fill-opacity="0" font-family="Arial,Arial_MSFontService,sans-serif" font-size="75.4214" direction="ltr" writing-mode="lr-tb" x="1.05371" y="7.99908">σ</text><path d="M2534.32 2822.4C2542.21 2824.48 2548.27 2828.97 2552.5 2835.88 2556.73 2842.78 2558.84 2851.11 2558.84 2860.86 2558.84 2870.64 2556.73 2878.97 2552.52 2885.85 2548.3 2892.72 2542.24 2897.2 2534.32 2899.28L2533.35 2896.16C2539.59 2894.08 2544.23 2889.97 2547.27 2883.84 2550.31 2877.71 2551.83 2869.91 2551.83 2860.46 2551.83 2851.32 2550.32 2843.74 2547.29 2837.7 2544.26 2831.66 2539.58 2827.6 2533.23 2825.52ZM2314.12 2822.4 2315.22 2825.52C2308.89 2827.6 2304.21 2831.66 2301.17 2837.7 2298.13 2843.74 2296.61 2851.32 2296.61 2860.46 2296.61 2869.91 2298.13 2877.71 2301.17 2883.84 2304.21 2889.97 2308.85 2894.08 2315.09 2896.16L2314.12 2899.28C2306.21 2897.2 2300.14 2892.72 2295.93 2885.85 2291.71 2878.97 2289.6 2870.64 2289.6 2860.86 2289.6 2851.11 2291.72 2842.78 2295.95 2835.88 2300.17 2828.97 2306.23 2824.48 2314.12 2822.4Z" fill="#000000" fill-rule="evenodd" fill-opacity="1"/><text fill="#000000" fill-opacity="1" font-family="Cambria Math,Cambria Math_MSFontService,sans-serif" font-style="normal" font-variant="normal" font-weight="400" font-stretch="normal" font-size="83" text-anchor="start" direction="ltr" writing-mode="lr-tb" unicode-bidi="normal" text-decoration="none" transform="matrix(1 0 0 1 2316.55 2885)">𝑥</text><text fill="#000000" fill-opacity="1" font-family="Cambria Math,Cambria Math_MSFontService,sans-serif" font-style="normal" font-variant="normal" font-weight="400" font-stretch="normal" font-size="60" text-anchor="start" direction="ltr" writing-mode="lr-tb" unicode-bidi="normal" text-decoration="none" transform="matrix(1 0 0 1 2359.86 2901)">𝑖</text><text fill="#000000" fill-opacity="1" font-family="Cambria Math,Cambria Math_MSFontService,sans-serif" font-style="normal" font-variant="normal" font-weight="400" font-stretch="normal" font-size="83" text-anchor="start" direction="ltr" writing-mode="lr-tb" unicode-bidi="normal" text-decoration="none" transform="matrix(1 0 0 1 2404.87 2885)">−</text><text fill="#000000" fill-opacity="1" font-family="Cambria Math,Cambria Math_MSFontService,sans-serif" font-style="normal" font-variant="normal" font-weight="400" font-stretch="normal" font-size="83" text-anchor="start" direction="ltr" writing-mode="lr-tb" unicode-bidi="normal" text-decoration="none" transform="matrix(1 0 0 1 2485.07 2885)">𝑥</text><path d="M3.4043-48.5112-26.6265-48.5112-26.6265-52.8071 3.4043-52.8071Z" fill="#000000" fill-rule="nonzero" fill-opacity="1" transform="matrix(1 0 0 1 2526.32 2885)"/><text fill="#000000" fill-opacity="0" font-family="Arial,Arial_MSFontService,sans-serif" font-size="4.2959" direction="ltr" writing-mode="lr-tb" x="-26.6265" y="-49.0482">ҧ</text><text fill="#000000" fill-opacity="1" font-family="Cambria Math,Cambria Math_MSFontService,sans-serif" font-style="normal" font-variant="normal" font-weight="400" font-stretch="normal" font-size="60" text-anchor="start" direction="ltr" writing-mode="lr-tb" unicode-bidi="normal" text-decoration="none" transform="matrix(1 0 0 1 2565.92 2860)">2</text><text fill="#000000" fill-opacity="1" font-family="Cambria Math,Cambria Math_MSFontService,sans-serif" font-style="normal" font-variant="normal" font-weight="400" font-stretch="normal" font-size="83" text-anchor="start" direction="ltr" writing-mode="lr-tb" unicode-bidi="normal" text-decoration="none" transform="matrix(1 0 0 1 2389.58 3002)">𝑛</text><path d="M2223.38 2920.97 2413.38 2920.97 2603.38 2920.97 2603.38 2925.97 2413.38 2925.97 2223.38 2925.97Z" fill="#000000" fill-rule="evenodd" fill-opacity="1"/><text fill="#000000" fill-opacity="1" font-family="Calibri,Calibri_MSFontService,sans-serif" font-style="normal" font-variant="normal" font-weight="400" font-stretch="normal" font-size="83" text-anchor="start" direction="ltr" writing-mode="lr-tb" unicode-bidi="normal" text-decoration="none" transform="matrix(1 0 0 1 1669.38 3221)">Calculated </text><text fill="#000000" fill-opacity="1" font-family="Calibri,Calibri_MSFontService,sans-serif" font-style="normal" font-variant="normal" font-weight="400" font-stretch="normal" font-size="83" text-anchor="start" direction="ltr" writing-mode="lr-tb" unicode-bidi="normal" text-decoration="none" transform="matrix(1 0 0 1 2038.41 3221)">for </text><text fill="#000000" fill-opacity="1" font-family="Calibri,Calibri_MSFontService,sans-serif" font-style="normal" font-variant="normal" font-weight="700" font-stretch="normal" font-size="83" text-anchor="start" direction="ltr" writing-mode="lr-tb" unicode-bidi="normal" text-decoration="none" transform="matrix(1 0 0 1 2152.97 3221)">quantitative</text><text fill="#000000" fill-opacity="1" font-family="Calibri,Calibri_MSFontService,sans-serif" font-style="normal" font-variant="normal" font-weight="400" font-stretch="normal" font-size="83" text-anchor="start" direction="ltr" writing-mode="lr-tb" unicode-bidi="normal" text-decoration="none" transform="matrix(1 0 0 1 2588.75 3221)">data</text><text fill="#000000" fill-opacity="1" font-family="Calibri,Calibri_MSFontService,sans-serif" font-style="normal" font-variant="normal" font-weight="400" font-stretch="normal" font-size="83" text-anchor="start" direction="ltr" writing-mode="lr-tb" unicode-bidi="normal" text-decoration="none" transform="matrix(1 0 0 1 1669.38 3419)">Not resistant to outliers</text><path d="M134 1982.33C134 1956.74 154.745 1936 180.334 1936L1460.67 1936C1486.26 1936 1507 1956.74 1507 1982.33L1507 2167.67C1507 2193.26 1486.26 2214 1460.67 2214L180.334 2214C154.745 2214 134 2193.26 134 2167.67Z" stroke="#DD7374" stroke-width="10.3125" stroke-linecap="butt" stroke-linejoin="miter" stroke-miterlimit="8" stroke-opacity="1" fill="#FFFFFF" fill-rule="evenodd" fill-opacity="1"/><text fill="#DD7374" fill-opacity="1" font-family="Calibri,Calibri_MSFontService,sans-serif" font-style="normal" font-variant="normal" font-weight="700" font-stretch="normal" font-size="83" text-anchor="start" direction="ltr" writing-mode="lr-tb" unicode-bidi="normal" text-decoration="none" transform="matrix(1 0 0 1 665.044 2102)">V</text><text fill="#DD7374" fill-opacity="1" font-family="Calibri,Calibri_MSFontService,sans-serif" font-style="normal" font-variant="normal" font-weight="700" font-stretch="normal" font-size="83" text-anchor="start" direction="ltr" writing-mode="lr-tb" unicode-bidi="normal" text-decoration="none" transform="matrix(1 0 0 1 709.182 2102)">ariation</text><path d="M134 2308C134 2291.98 146.984 2279 163.001 2279L1478 2279C1494.02 2279 1507 2291.98 1507 2308L1507 2424C1507 2440.02 1494.02 2453 1478 2453L163.001 2453C146.984 2453 134 2440.02 134 2424Z" fill="#595959" fill-rule="evenodd" fill-opacity="1"/><text fill="#FFFFFF" fill-opacity="1" font-family="Courier New,Courier New_MSFontService,sans-serif" font-style="normal" font-variant="normal" font-weight="400" font-stretch="normal" font-size="69" text-anchor="start" direction="ltr" writing-mode="lr-tb" unicode-bidi="normal" text-decoration="none" transform="matrix(1 0 0 1 175.816 2386)">dataframe</text><text fill="#FFFFFF" fill-opacity="1" font-family="Courier New,Courier New_MSFontService,sans-serif" font-style="normal" font-variant="normal" font-weight="400" font-stretch="normal" font-size="69" text-anchor="start" direction="ltr" writing-mode="lr-tb" unicode-bidi="normal" text-decoration="none" transform="matrix(1 0 0 1 547.066 2386)">[</text><text fill="#FFFFFF" fill-opacity="1" font-family="Courier New,Courier New_MSFontService,sans-serif" font-style="normal" font-variant="normal" font-weight="400" font-stretch="normal" font-size="69" text-anchor="start" direction="ltr" writing-mode="lr-tb" unicode-bidi="normal" text-decoration="none" transform="matrix(1 0 0 1 588.316 2386)">'feature'</text><text fill="#FFFFFF" fill-opacity="1" font-family="Courier New,Courier New_MSFontService,sans-serif" font-style="normal" font-variant="normal" font-weight="400" font-stretch="normal" font-size="69" text-anchor="start" direction="ltr" writing-mode="lr-tb" unicode-bidi="normal" text-decoration="none" transform="matrix(1 0 0 1 959.566 2386)">].</text><text fill="#FFFFFF" fill-opacity="1" font-family="Courier New,Courier New_MSFontService,sans-serif" font-style="normal" font-variant="normal" font-weight="400" font-stretch="normal" font-size="69" text-anchor="start" direction="ltr" writing-mode="lr-tb" unicode-bidi="normal" text-decoration="none" transform="matrix(1 0 0 1 1042.07 2386)">var()</text><path d="M134 2582.18C134 2546.73 162.734 2518 198.18 2518L1442.82 2518C1478.27 2518 1507 2546.73 1507 2582.18L1507 3491.82C1507 3527.27 1478.27 3556 1442.82 3556L198.18 3556C162.734 3556 134 3527.27 134 3491.82Z" stroke="#DD7374" stroke-width="10.3125" stroke-linecap="butt" stroke-linejoin="miter" stroke-miterlimit="8" stroke-opacity="1" fill="#FFFFFF" fill-rule="evenodd" fill-opacity="1"/><text fill="#000000" fill-opacity="1" font-family="Calibri,Calibri_MSFontService,sans-serif" font-style="normal" font-variant="normal" font-weight="400" font-stretch="normal" font-size="83" text-anchor="start" direction="ltr" writing-mode="lr-tb" unicode-bidi="normal" text-decoration="none" transform="matrix(1 0 0 1 186.154 2631)">The average square of data </text><text fill="#000000" fill-opacity="1" font-family="Calibri,Calibri_MSFontService,sans-serif" font-style="normal" font-variant="normal" font-weight="400" font-stretch="normal" font-size="83" text-anchor="start" direction="ltr" writing-mode="lr-tb" unicode-bidi="normal" text-decoration="none" transform="matrix(1 0 0 1 186.154 2730)">deviations from the arithmetic mean</text><text fill="#000000" fill-opacity="1" font-family="Cambria Math,Cambria Math_MSFontService,sans-serif" font-style="normal" font-variant="normal" font-weight="400" font-stretch="normal" font-size="83" text-anchor="start" direction="ltr" writing-mode="lr-tb" unicode-bidi="normal" text-decoration="none" transform="matrix(1 0 0 1 530.637 2994)">𝜎</text><text fill="#000000" fill-opacity="1" font-family="Cambria Math,Cambria Math_MSFontService,sans-serif" font-style="normal" font-variant="normal" font-weight="400" font-stretch="normal" font-size="60" text-anchor="start" direction="ltr" writing-mode="lr-tb" unicode-bidi="normal" text-decoration="none" transform="matrix(1 0 0 1 583.597 2964)">2</text><text fill="#000000" fill-opacity="1" font-family="Cambria Math,Cambria Math_MSFontService,sans-serif" font-style="normal" font-variant="normal" font-weight="400" font-stretch="normal" font-size="83" text-anchor="start" direction="ltr" writing-mode="lr-tb" unicode-bidi="normal" text-decoration="none" transform="matrix(1 0 0 1 644.877 2994)">=</text><path d="M14.2251-53.7798 33.9619-23.8301 33.9619-20.75 11.834 9.64551 38.501 9.64551C40.1761 9.64551 41.4392 9.53743 42.2903 9.32129 43.1413 9.10514 43.8708 8.77417 44.4788 8.32837 45.0867 7.88257 45.6405 7.26115 46.1404 6.46411 46.6402 5.66707 47.1198 4.56608 47.5791 3.16113 48.0384 1.75618 48.4707-0.0810547 48.876-2.35059L53.6177-2.35059 52.4424 17.4268 1.05371 17.4268 1.05371 15.1572 26.0996-19.2505 2.59375-55.6846 2.59375-57.9946 52.645-57.9946 52.645-39.96 48.2681-39.96C47.5926-42.5267 46.9509-44.6206 46.343-46.2417 45.7351-47.8628 45.1137-49.1462 44.4788-50.0918 43.8438-51.0374 43.1954-51.7602 42.5334-52.26 41.8715-52.7598 41.1082-53.1381 40.2436-53.3948 39.3791-53.6514 38.2308-53.7798 36.7988-53.7798Z" fill="#000000" fill-rule="nonzero" fill-opacity="1" transform="matrix(1 0 0 1 729.668 2928)"/><text fill="#000000" fill-opacity="0" font-family="Arial,Arial_MSFontService,sans-serif" font-size="75.4214" direction="ltr" writing-mode="lr-tb" x="1.05371" y="7.99908">σ</text><path d="M1040.14 2869.21C1048.03 2871.29 1054.09 2875.79 1058.32 2882.69 1062.55 2889.59 1064.66 2897.92 1064.66 2907.67 1064.66 2917.45 1062.55 2925.78 1058.34 2932.66 1054.12 2939.54 1048.06 2944.01 1040.14 2946.09L1039.17 2942.97C1045.41 2940.89 1050.05 2936.79 1053.09 2930.65 1056.13 2924.52 1057.65 2916.72 1057.65 2907.27 1057.65 2898.14 1056.14 2890.55 1053.11 2884.51 1050.08 2878.47 1045.4 2874.41 1039.05 2872.33ZM819.943 2869.21 821.037 2872.33C814.715 2874.41 810.034 2878.47 806.994 2884.51 803.955 2890.55 802.435 2898.14 802.435 2907.27 802.435 2916.72 803.955 2924.52 806.994 2930.65 810.034 2936.79 814.674 2940.89 820.915 2942.97L819.943 2946.09C812.026 2944.01 805.961 2939.54 801.746 2932.66 797.531 2925.78 795.424 2917.45 795.424 2907.67 795.424 2897.92 797.538 2889.59 801.766 2882.69 805.995 2875.79 812.053 2871.29 819.943 2869.21Z" fill="#000000" fill-rule="evenodd" fill-opacity="1"/><text fill="#000000" fill-opacity="1" font-family="Cambria Math,Cambria Math_MSFontService,sans-serif" font-style="normal" font-variant="normal" font-weight="400" font-stretch="normal" font-size="83" text-anchor="start" direction="ltr" writing-mode="lr-tb" unicode-bidi="normal" text-decoration="none" transform="matrix(1 0 0 1 822.366 2931)">𝑥</text><text fill="#000000" fill-opacity="1" font-family="Cambria Math,Cambria Math_MSFontService,sans-serif" font-style="normal" font-variant="normal" font-weight="400" font-stretch="normal" font-size="60" text-anchor="start" direction="ltr" writing-mode="lr-tb" unicode-bidi="normal" text-decoration="none" transform="matrix(1 0 0 1 865.679 2948)">𝑖</text><text fill="#000000" fill-opacity="1" font-family="Cambria Math,Cambria Math_MSFontService,sans-serif" font-style="normal" font-variant="normal" font-weight="400" font-stretch="normal" font-size="83" text-anchor="start" direction="ltr" writing-mode="lr-tb" unicode-bidi="normal" text-decoration="none" transform="matrix(1 0 0 1 910.687 2931)">−</text><text fill="#000000" fill-opacity="1" font-family="Cambria Math,Cambria Math_MSFontService,sans-serif" font-style="normal" font-variant="normal" font-weight="400" font-stretch="normal" font-size="83" text-anchor="start" direction="ltr" writing-mode="lr-tb" unicode-bidi="normal" text-decoration="none" transform="matrix(1 0 0 1 990.895 2931)">𝑥</text><path d="M3.4043-48.5112-26.6265-48.5112-26.6265-52.8071 3.4043-52.8071Z" fill="#000000" fill-rule="nonzero" fill-opacity="1" transform="matrix(1 0 0 1 1032.15 2931)"/><text fill="#000000" fill-opacity="0" font-family="Arial,Arial_MSFontService,sans-serif" font-size="4.2959" direction="ltr" writing-mode="lr-tb" x="-26.6265" y="-49.0482">ҧ</text><text fill="#000000" fill-opacity="1" font-family="Cambria Math,Cambria Math_MSFontService,sans-serif" font-style="normal" font-variant="normal" font-weight="400" font-stretch="normal" font-size="60" text-anchor="start" direction="ltr" writing-mode="lr-tb" unicode-bidi="normal" text-decoration="none" transform="matrix(1 0 0 1 1071.75 2901)">2</text><text fill="#000000" fill-opacity="1" font-family="Cambria Math,Cambria Math_MSFontService,sans-serif" font-style="normal" font-variant="normal" font-weight="400" font-stretch="normal" font-size="83" text-anchor="start" direction="ltr" writing-mode="lr-tb" unicode-bidi="normal" text-decoration="none" transform="matrix(1 0 0 1 895.402 3049)">𝑛</text><path d="M730.154 2967.78 920.154 2967.78 1110.15 2967.78 1110.15 2972.78 920.154 2972.78 730.154 2972.78Z" fill="#000000" fill-rule="evenodd" fill-opacity="1"/><text fill="#000000" fill-opacity="1" font-family="Calibri,Calibri_MSFontService,sans-serif" font-style="normal" font-variant="normal" font-weight="400" font-stretch="normal" font-size="83" text-anchor="start" direction="ltr" writing-mode="lr-tb" unicode-bidi="normal" text-decoration="none" transform="matrix(1 0 0 1 186.154 3226)">Calculated for </text><text fill="#000000" fill-opacity="1" font-family="Calibri,Calibri_MSFontService,sans-serif" font-style="normal" font-variant="normal" font-weight="700" font-stretch="normal" font-size="83" text-anchor="start" direction="ltr" writing-mode="lr-tb" unicode-bidi="normal" text-decoration="none" transform="matrix(1 0 0 1 669.741 3226)">quantitative</text><text fill="#000000" fill-opacity="1" font-family="Calibri,Calibri_MSFontService,sans-serif" font-style="normal" font-variant="normal" font-weight="400" font-stretch="normal" font-size="83" text-anchor="start" direction="ltr" writing-mode="lr-tb" unicode-bidi="normal" text-decoration="none" transform="matrix(1 0 0 1 1105.52 3226)">data</text><text fill="#000000" fill-opacity="1" font-family="Calibri,Calibri_MSFontService,sans-serif" font-style="normal" font-variant="normal" font-weight="400" font-stretch="normal" font-size="83" text-anchor="start" direction="ltr" writing-mode="lr-tb" unicode-bidi="normal" text-decoration="none" transform="matrix(1 0 0 1 186.154 3424)">Not resistant to outliers</text><path d="M3703.05 3139.5 3703.05 3139.49C3703.05 3136.32 3705.61 3133.76 3708.78 3133.76 3711.94 3133.76 3714.51 3136.32 3714.51 3139.49L3714.51 3139.5C3714.51 3142.66 3711.94 3145.23 3708.78 3145.23 3705.62 3145.23 3703.05 3142.66 3703.05 3139.5ZM3703.04 3116.57 3703.04 3116.56C3703.04 3113.4 3705.61 3110.83 3708.77 3110.83 3711.93 3110.83 3714.5 3113.39 3714.5 3116.56L3714.5 3116.57 3714.5 3116.57C3714.5 3119.73 3711.94 3122.3 3708.77 3122.3 3705.61 3122.3 3703.04 3119.74 3703.04 3116.57ZM3703.03 3093.64 3703.03 3093.63C3703.03 3090.47 3705.6 3087.9 3708.76 3087.9 3711.93 3087.9 3714.49 3090.46 3714.49 3093.63L3714.49 3093.64C3714.49 3096.8 3711.93 3099.37 3708.77 3099.37 3705.6 3099.37 3703.04 3096.81 3703.03 3093.64ZM3703.03 3070.72 3703.03 3070.7C3703.03 3067.54 3705.59 3064.97 3708.75 3064.97 3711.92 3064.97 3714.48 3067.54 3714.49 3070.7L3714.49 3070.71C3714.49 3073.88 3711.92 3076.44 3708.76 3076.44 3705.59 3076.44 3703.03 3073.88 3703.03 3070.72ZM3703.02 3047.79 3703.02 3047.78C3703.02 3044.61 3705.58 3042.05 3708.75 3042.05 3711.91 3042.04 3714.48 3044.61 3714.48 3047.77L3714.48 3047.78C3714.48 3050.95 3711.91 3053.51 3708.75 3053.52 3705.59 3053.52 3703.02 3050.95 3703.02 3047.79ZM3703.01 3024.86 3703.01 3024.85C3703.01 3021.68 3705.57 3019.12 3708.74 3019.12 3711.9 3019.12 3714.47 3021.68 3714.47 3024.84L3714.47 3024.86C3714.47 3028.02 3711.91 3030.59 3708.74 3030.59 3705.58 3030.59 3703.01 3028.02 3703.01 3024.86ZM3703 3001.93 3703 3001.92C3703 2998.76 3705.57 2996.19 3708.73 2996.19 3711.9 2996.19 3714.46 2998.75 3714.46 3001.92L3714.46 3001.93C3714.46 3005.09 3711.9 3007.66 3708.74 3007.66 3705.57 3007.66 3703.01 3005.1 3703 3001.93ZM3703 2979 3703 2978.99C3703 2975.83 3705.56 2973.26 3708.72 2973.26 3711.89 2973.26 3714.45 2975.82 3714.46 2978.99L3714.46 2979C3714.46 2982.16 3711.89 2984.73 3708.73 2984.73 3705.56 2984.73 3703 2982.17 3703 2979ZM3702.99 2956.08 3702.99 2956.06C3702.99 2952.9 3705.55 2950.33 3708.72 2950.33 3711.88 2950.33 3714.45 2952.9 3714.45 2956.06L3714.45 2956.07C3714.45 2959.24 3711.88 2961.8 3708.72 2961.8 3705.56 2961.8 3702.99 2959.24 3702.99 2956.08ZM3702.98 2933.15 3702.98 2933.14C3702.98 2929.97 3705.54 2927.41 3708.71 2927.4 3711.87 2927.4 3714.44 2929.97 3714.44 2933.13L3714.44 2933.14C3714.44 2936.31 3711.88 2938.87 3708.71 2938.87 3705.55 2938.88 3702.98 2936.31 3702.98 2933.15ZM3702.97 2910.22 3702.97 2910.21C3702.97 2907.04 3705.54 2904.48 3708.7 2904.48 3711.87 2904.48 3714.43 2907.04 3714.43 2910.2L3714.43 2910.22C3714.43 2913.38 3711.87 2915.95 3708.71 2915.95 3705.54 2915.95 3702.98 2913.38 3702.97 2910.22ZM3702.97 2887.29 3702.97 2887.28C3702.97 2884.12 3705.53 2881.55 3708.69 2881.55 3711.86 2881.55 3714.42 2884.11 3714.42 2887.28L3714.42 2887.29C3714.43 2890.45 3711.86 2893.02 3708.7 2893.02 3705.53 2893.02 3702.97 2890.46 3702.97 2887.29ZM3702.96 2864.36 3702.96 2864.35C3702.96 2861.19 3705.52 2858.62 3708.69 2858.62 3711.85 2858.62 3714.42 2861.18 3714.42 2864.35L3714.42 2864.36C3714.42 2867.52 3711.85 2870.09 3708.69 2870.09 3705.53 2870.09 3702.96 2867.53 3702.96 2864.36ZM3702.95 2841.43 3702.95 2841.42C3702.95 2838.26 3705.51 2835.69 3708.68 2835.69 3711.84 2835.69 3714.41 2838.26 3714.41 2841.42L3714.41 2841.43C3714.41 2844.6 3711.85 2847.16 3708.68 2847.16 3705.52 2847.16 3702.95 2844.6 3702.95 2841.43ZM3702.94 2818.51 3702.94 2818.5C3702.94 2815.33 3705.51 2812.77 3708.67 2812.76 3711.84 2812.76 3714.4 2815.33 3714.4 2818.49L3714.4 2818.5C3714.4 2821.67 3711.84 2824.23 3708.67 2824.23 3705.51 2824.24 3702.94 2821.67 3702.94 2818.51ZM3702.94 2795.58 3702.94 2795.57C3702.94 2792.4 3705.5 2789.84 3708.66 2789.84 3711.83 2789.83 3714.39 2792.4 3714.39 2795.56L3714.39 2795.57C3714.4 2798.74 3711.83 2801.3 3708.67 2801.31 3705.5 2801.31 3702.94 2798.74 3702.94 2795.58ZM3702.93 2772.65 3702.93 2772.64C3702.93 2769.47 3705.49 2766.91 3708.66 2766.91 3711.82 2766.91 3714.39 2769.47 3714.39 2772.64L3714.39 2772.65C3714.39 2775.81 3711.82 2778.38 3708.66 2778.38 3705.5 2778.38 3702.93 2775.81 3702.93 2772.65ZM3702.92 2749.72 3702.92 2749.71C3702.92 2746.55 3705.48 2743.98 3708.65 2743.98 3711.81 2743.98 3714.38 2746.54 3714.38 2749.71L3714.38 2749.72C3714.38 2752.88 3711.82 2755.45 3708.65 2755.45 3705.49 2755.45 3702.92 2752.89 3702.92 2749.72ZM3702.91 2726.79 3702.91 2726.78C3702.91 2723.62 3705.48 2721.05 3708.64 2721.05 3711.8 2721.05 3714.37 2723.61 3714.37 2726.78L3714.37 2726.79C3714.37 2729.95 3711.81 2732.52 3708.64 2732.52 3705.48 2732.52 3702.91 2729.96 3702.91 2726.79ZM3702.91 2703.87 3702.91 2703.85C3702.91 2700.69 3705.47 2698.12 3708.63 2698.12 3711.8 2698.12 3714.36 2700.69 3714.36 2703.85L3714.36 2703.86C3714.37 2707.03 3711.8 2709.59 3708.64 2709.59 3705.47 2709.59 3702.91 2707.03 3702.91 2703.87ZM3702.9 2680.94 3702.9 2680.93C3702.9 2677.76 3705.46 2675.2 3708.63 2675.2 3711.79 2675.19 3714.36 2677.76 3714.36 2680.92L3714.36 2680.93C3714.36 2684.1 3711.79 2686.66 3708.63 2686.67 3705.47 2686.67 3702.9 2684.1 3702.9 2680.94ZM3702.89 2658.01 3702.89 2658C3702.89 2654.83 3705.45 2652.27 3708.62 2652.27 3711.78 2652.27 3714.35 2654.83 3714.35 2657.99L3714.35 2658.01C3714.35 2661.17 3711.79 2663.74 3708.62 2663.74 3705.46 2663.74 3702.89 2661.17 3702.89 2658.01ZM3702.88 2635.08 3702.88 2635.07C3702.88 2631.91 3705.45 2629.34 3708.61 2629.34 3711.77 2629.34 3714.34 2631.9 3714.34 2635.07L3714.34 2635.08C3714.34 2638.24 3711.78 2640.81 3708.61 2640.81 3705.45 2640.81 3702.88 2638.25 3702.88 2635.08ZM3702.88 2612.15 3702.88 2612.14C3702.87 2608.98 3705.44 2606.41 3708.6 2606.41 3711.77 2606.41 3714.33 2608.97 3714.33 2612.14L3714.33 2612.15C3714.34 2615.31 3711.77 2617.88 3708.61 2617.88 3705.44 2617.88 3702.88 2615.32 3702.88 2612.15ZM3702.87 2589.23 3702.87 2589.21C3702.87 2586.05 3705.43 2583.48 3708.6 2583.48 3711.76 2583.48 3714.33 2586.05 3714.33 2589.21L3714.33 2589.22C3714.33 2592.39 3711.76 2594.95 3708.6 2594.95 3705.44 2594.95 3702.87 2592.39 3702.87 2589.23ZM3702.86 2566.3 3702.86 2566.29C3702.86 2563.12 3705.42 2560.56 3708.59 2560.55 3711.75 2560.55 3714.32 2563.12 3714.32 2566.28L3714.32 2566.29C3714.32 2569.46 3711.76 2572.02 3708.59 2572.02 3705.43 2572.03 3702.86 2569.46 3702.86 2566.3ZM3702.85 2543.37 3702.85 2543.36C3702.85 2540.19 3705.42 2537.63 3708.58 2537.63 3711.74 2537.63 3714.31 2540.19 3714.31 2543.35L3714.31 2543.37C3714.31 2546.53 3711.75 2549.1 3708.58 2549.1 3705.42 2549.1 3702.85 2546.53 3702.85 2543.37ZM3702.85 2520.44 3702.85 2520.43C3702.84 2517.27 3705.41 2514.7 3708.57 2514.7 3711.74 2514.7 3714.3 2517.26 3714.3 2520.43L3714.3 2520.44C3714.3 2523.6 3711.74 2526.17 3708.58 2526.17 3705.41 2526.17 3702.85 2523.61 3702.85 2520.44ZM3702.84 2497.51 3702.84 2497.5C3702.84 2494.34 3705.4 2491.77 3708.57 2491.77 3711.73 2491.77 3714.3 2494.33 3714.3 2497.5L3714.3 2497.51C3714.3 2500.67 3711.73 2503.24 3708.57 2503.24 3705.4 2503.24 3702.84 2500.68 3702.84 2497.51ZM3702.83 2474.58 3702.83 2474.57 3702.83 2474.57C3702.83 2471.41 3705.39 2468.84 3708.56 2468.84 3711.72 2468.84 3714.29 2471.41 3714.29 2474.57L3714.29 2474.58C3714.29 2477.75 3711.73 2480.31 3708.56 2480.31 3705.4 2480.31 3702.83 2477.75 3702.83 2474.58ZM3702.82 2451.66 3702.82 2451.65C3702.82 2448.48 3705.39 2445.92 3708.55 2445.91 3711.71 2445.91 3714.28 2448.48 3714.28 2451.64L3714.28 2451.64 3714.28 2451.65C3714.28 2454.82 3711.72 2457.38 3708.55 2457.38 3705.39 2457.39 3702.82 2454.82 3702.82 2451.66ZM3702.82 2428.73 3702.82 2428.72C3702.81 2425.55 3705.38 2422.99 3708.54 2422.99 3711.71 2422.99 3714.27 2425.55 3714.27 2428.71L3714.27 2428.72C3714.27 2431.89 3711.71 2434.45 3708.55 2434.46 3705.38 2434.46 3702.82 2431.89 3702.82 2428.73ZM3702.81 2405.8 3702.81 2405.79C3702.81 2402.62 3705.37 2400.06 3708.53 2400.06 3711.7 2400.06 3714.26 2402.62 3714.27 2405.79L3714.27 2405.8C3714.27 2408.96 3711.7 2411.53 3708.54 2411.53 3705.37 2411.53 3702.81 2408.96 3702.81 2405.8ZM3702.8 2382.87 3702.8 2382.86C3702.8 2379.7 3705.36 2377.13 3708.53 2377.13 3711.69 2377.13 3714.26 2379.69 3714.26 2382.86L3714.26 2382.87C3714.26 2386.03 3711.7 2388.6 3708.53 2388.6 3705.37 2388.6 3702.8 2386.04 3702.8 2382.87ZM3702.79 2359.94 3702.79 2359.93C3702.79 2356.77 3705.36 2354.2 3708.52 2354.2 3711.68 2354.2 3714.25 2356.76 3714.25 2359.93L3714.25 2359.93 3714.25 2359.94C3714.25 2363.1 3711.69 2365.67 3708.52 2365.67 3705.36 2365.67 3702.79 2363.11 3702.79 2359.94ZM3702.78 2337.02 3702.78 2337C3702.78 2333.84 3705.35 2331.27 3708.51 2331.27 3711.68 2331.27 3714.24 2333.84 3714.24 2337L3714.24 2337.01C3714.24 2340.18 3711.68 2342.74 3708.52 2342.74 3705.35 2342.74 3702.79 2340.18 3702.78 2337.02ZM3702.78 2314.09 3702.78 2314.08C3702.78 2310.91 3705.34 2308.35 3708.5 2308.35 3711.67 2308.34 3714.23 2310.91 3714.24 2314.07L3714.24 2314.08C3714.24 2317.25 3711.67 2319.81 3708.51 2319.82 3705.34 2319.82 3702.78 2317.25 3702.78 2314.09Z" fill="#595959" fill-rule="nonzero" fill-opacity="1"/><rect x="3763.5" y="2484.5" width="107" height="655" stroke="#FFFFFF" stroke-width="6.875" stroke-linecap="butt" stroke-linejoin="miter" stroke-miterlimit="8" stroke-opacity="1" fill="#DD7374" fill-opacity="1"/><rect x="3871.5" y="2661.5" width="107" height="478" stroke="#FFFFFF" stroke-width="6.875" stroke-linecap="butt" stroke-linejoin="miter" stroke-miterlimit="8" stroke-opacity="1" fill="#DD7374" fill-opacity="1"/><rect x="3979.5" y="2876.5" width="107" height="263" stroke="#FFFFFF" stroke-width="6.875" stroke-linecap="butt" stroke-linejoin="miter" stroke-miterlimit="8" stroke-opacity="1" fill="#DD7374" fill-opacity="1"/><rect x="4087.5" y="2996.5" width="107" height="143" stroke="#FFFFFF" stroke-width="6.875" stroke-linecap="butt" stroke-linejoin="miter" stroke-miterlimit="8" stroke-opacity="1" fill="#DD7374" fill-opacity="1"/><rect x="3655.5" y="2293.5" width="107" height="846" stroke="#FFFFFF" stroke-width="6.875" stroke-linecap="butt" stroke-linejoin="miter" stroke-miterlimit="8" stroke-opacity="1" fill="#DD7374" fill-opacity="1"/><rect x="3547.5" y="2484.5" width="107" height="655" stroke="#FFFFFF" stroke-width="6.875" stroke-linecap="butt" stroke-linejoin="miter" stroke-miterlimit="8" stroke-opacity="1" fill="#DD7374" fill-opacity="1"/><rect x="3439.5" y="2661.5" width="107" height="478" stroke="#FFFFFF" stroke-width="6.875" stroke-linecap="butt" stroke-linejoin="miter" stroke-miterlimit="8" stroke-opacity="1" fill="#DD7374" fill-opacity="1"/><rect x="3331.5" y="2876.5" width="107" height="263" stroke="#FFFFFF" stroke-width="6.875" stroke-linecap="butt" stroke-linejoin="miter" stroke-miterlimit="8" stroke-opacity="1" fill="#DD7374" fill-opacity="1"/><rect x="3223.5" y="2996.5" width="107" height="143" stroke="#FFFFFF" stroke-width="6.875" stroke-linecap="butt" stroke-linejoin="miter" stroke-miterlimit="8" stroke-opacity="1" fill="#DD7374" fill-opacity="1"/><rect x="3754.5" y="2672.5" width="86" height="467" stroke="#FFFFFF" stroke-width="6.875" stroke-linecap="butt" stroke-linejoin="miter" stroke-miterlimit="8" stroke-opacity="1" fill="#595959" fill-opacity="1"/><rect x="3841.5" y="2799.5" width="86" height="340" stroke="#FFFFFF" stroke-width="6.875" stroke-linecap="butt" stroke-linejoin="miter" stroke-miterlimit="8" stroke-opacity="1" fill="#595959" fill-opacity="1"/><rect x="3928.5" y="2952.5" width="86.0002" height="187" stroke="#FFFFFF" stroke-width="6.875" stroke-linecap="butt" stroke-linejoin="miter" stroke-miterlimit="8" stroke-opacity="1" fill="#595959" fill-opacity="1"/><rect x="4016.5" y="3037.5" width="86.0002" height="102" stroke="#FFFFFF" stroke-width="6.875" stroke-linecap="butt" stroke-linejoin="miter" stroke-miterlimit="8" stroke-opacity="1" fill="#595959" fill-opacity="1"/><rect x="3667.5" y="2536.5" width="86" height="603" stroke="#FFFFFF" stroke-width="6.875" stroke-linecap="butt" stroke-linejoin="miter" stroke-miterlimit="8" stroke-opacity="1" fill="#595959" fill-opacity="1"/><rect x="3580.5" y="2672.5" width="86" height="467" stroke="#FFFFFF" stroke-width="6.875" stroke-linecap="butt" stroke-linejoin="miter" stroke-miterlimit="8" stroke-opacity="1" fill="#595959" fill-opacity="1"/><rect x="3493.5" y="2799.5" width="86" height="340" stroke="#FFFFFF" stroke-width="6.875" stroke-linecap="butt" stroke-linejoin="miter" stroke-miterlimit="8" stroke-opacity="1" fill="#595959" fill-opacity="1"/><rect x="3405.5" y="2952.5" width="87" height="187" stroke="#FFFFFF" stroke-width="6.875" stroke-linecap="butt" stroke-linejoin="miter" stroke-miterlimit="8" stroke-opacity="1" fill="#595959" fill-opacity="1"/><rect x="3318.5" y="3037.5" width="86" height="102" stroke="#FFFFFF" stroke-width="6.875" stroke-linecap="butt" stroke-linejoin="miter" stroke-miterlimit="8" stroke-opacity="1" fill="#595959" fill-opacity="1"/><rect x="3229.5" y="3060.5" width="86" height="80" stroke="#FFFFFF" stroke-width="6.875" stroke-linecap="butt" stroke-linejoin="miter" stroke-miterlimit="8" stroke-opacity="1" fill="#595959" fill-opacity="1"/><rect x="3136.5" y="3078.5" width="86.0002" height="60.9998" stroke="#FFFFFF" stroke-width="6.875" stroke-linecap="butt" stroke-linejoin="miter" stroke-miterlimit="8" stroke-opacity="1" fill="#595959" fill-opacity="1"/><rect x="3047.5" y="3092.5" width="86.0002" height="47" stroke="#FFFFFF" stroke-width="6.875" stroke-linecap="butt" stroke-linejoin="miter" stroke-miterlimit="8" stroke-opacity="1" fill="#595959" fill-opacity="1"/><rect x="0" y="0" width="85.9999" height="80.0001" stroke="#FFFFFF" stroke-width="6.875" stroke-linecap="butt" stroke-linejoin="miter" stroke-miterlimit="8" stroke-opacity="1" fill="#595959" fill-opacity="1" transform="matrix(-1 0 0 1 4188.5 3060.5)"/><rect x="0" y="0" width="85.9999" height="60.9998" stroke="#FFFFFF" stroke-width="6.875" stroke-linecap="butt" stroke-linejoin="miter" stroke-miterlimit="8" stroke-opacity="1" fill="#595959" fill-opacity="1" transform="matrix(-1 0 0 1 4280.5 3078.5)"/><rect x="0" y="0" width="85.9999" height="47.0001" stroke="#FFFFFF" stroke-width="6.875" stroke-linecap="butt" stroke-linejoin="miter" stroke-miterlimit="8" stroke-opacity="1" fill="#595959" fill-opacity="1" transform="matrix(-1 0 0 1 4369.5 3092.5)"/><path d="M3513 2940.5C3513 2922.55 3527.55 2908 3545.5 2908L3872.5 2908C3890.45 2908 3905 2922.55 3905 2940.5L3905 3070.5C3905 3088.45 3890.45 3103 3872.5 3103L3545.5 3103C3527.55 3103 3513 3088.45 3513 3070.5Z" fill="#FFFFFF" fill-rule="evenodd" fill-opacity="1"/><text fill="#595959" fill-opacity="1" font-family="Cambria Math,Cambria Math_MSFontService,sans-serif" font-style="normal" font-variant="normal" font-weight="400" font-stretch="normal" font-size="83" text-anchor="start" direction="ltr" writing-mode="lr-tb" unicode-bidi="normal" text-decoration="none" transform="matrix(1 0 0 1 3564.68 2986)">𝛔</text><text fill="#595959" fill-opacity="1" font-family="Cambria Math,Cambria Math_MSFontService,sans-serif" font-style="normal" font-variant="normal" font-weight="400" font-stretch="normal" font-size="60" text-anchor="start" direction="ltr" writing-mode="lr-tb" unicode-bidi="normal" text-decoration="none" transform="matrix(1 0 0 1 3615.67 2956)">𝟐</text><text fill="#000000" fill-opacity="1" font-family="Cambria Math,Cambria Math_MSFontService,sans-serif" font-style="normal" font-variant="normal" font-weight="400" font-stretch="normal" font-size="83" text-anchor="start" direction="ltr" writing-mode="lr-tb" unicode-bidi="normal" text-decoration="none" transform="matrix(1 0 0 1 3678.1 2986)">&gt;</text><text fill="#DD7374" fill-opacity="1" font-family="Cambria Math,Cambria Math_MSFontService,sans-serif" font-style="normal" font-variant="normal" font-weight="400" font-stretch="normal" font-size="83" text-anchor="start" direction="ltr" writing-mode="lr-tb" unicode-bidi="normal" text-decoration="none" transform="matrix(1 0 0 1 3762.89 2986)">𝛔</text><text fill="#DD7374" fill-opacity="1" font-family="Cambria Math,Cambria Math_MSFontService,sans-serif" font-style="normal" font-variant="normal" font-weight="400" font-stretch="normal" font-size="60" text-anchor="start" direction="ltr" writing-mode="lr-tb" unicode-bidi="normal" text-decoration="none" transform="matrix(1 0 0 1 3813.88 2956)">𝟐</text><text fill="#595959" fill-opacity="1" font-family="Cambria Math,Cambria Math_MSFontService,sans-serif" font-style="normal" font-variant="normal" font-weight="400" font-stretch="normal" font-size="83" text-anchor="start" direction="ltr" writing-mode="lr-tb" unicode-bidi="normal" text-decoration="none" transform="matrix(1 0 0 1 3604.19 3084)">𝛔</text><text fill="#000000" fill-opacity="1" font-family="Cambria Math,Cambria Math_MSFontService,sans-serif" font-style="normal" font-variant="normal" font-weight="400" font-stretch="normal" font-size="83" text-anchor="start" direction="ltr" writing-mode="lr-tb" unicode-bidi="normal" text-decoration="none" transform="matrix(1 0 0 1 3678.1 3084)">&gt;</text><text fill="#DD7374" fill-opacity="1" font-family="Cambria Math,Cambria Math_MSFontService,sans-serif" font-style="normal" font-variant="normal" font-weight="400" font-stretch="normal" font-size="83" text-anchor="start" direction="ltr" writing-mode="lr-tb" unicode-bidi="normal" text-decoration="none" transform="matrix(1 0 0 1 3762.89 3084)">𝛔</text><path d="M841 3721.17C841 3695.67 861.67 3675 887.167 3675L2166.83 3675C2192.33 3675 2213 3695.67 2213 3721.17L2213 3905.83C2213 3931.33 2192.33 3952 2166.83 3952L887.167 3952C861.67 3952 841 3931.33 841 3905.83Z" stroke="#DD7374" stroke-width="10.3125" stroke-linecap="butt" stroke-linejoin="miter" stroke-miterlimit="8" stroke-opacity="1" fill="#FFFFFF" fill-rule="evenodd" fill-opacity="1"/><text fill="#DD7374" fill-opacity="1" font-family="Calibri,Calibri_MSFontService,sans-serif" font-style="normal" font-variant="normal" font-weight="700" font-stretch="normal" font-size="83" text-anchor="start" direction="ltr" writing-mode="lr-tb" unicode-bidi="normal" text-decoration="none" transform="matrix(1 0 0 1 1096.08 3841)">Number</text><text fill="#DD7374" fill-opacity="1" font-family="Calibri,Calibri_MSFontService,sans-serif" font-style="normal" font-variant="normal" font-weight="700" font-stretch="normal" font-size="83" text-anchor="start" direction="ltr" writing-mode="lr-tb" unicode-bidi="normal" text-decoration="none" transform="matrix(1 0 0 1 1395.15 3841)">of</text><text fill="#DD7374" fill-opacity="1" font-family="Calibri,Calibri_MSFontService,sans-serif" font-style="normal" font-variant="normal" font-weight="700" font-stretch="normal" font-size="83" text-anchor="start" direction="ltr" writing-mode="lr-tb" unicode-bidi="normal" text-decoration="none" transform="matrix(1 0 0 1 1484.52 3841)">unique</text><text fill="#DD7374" fill-opacity="1" font-family="Calibri,Calibri_MSFontService,sans-serif" font-style="normal" font-variant="normal" font-weight="700" font-stretch="normal" font-size="83" text-anchor="start" direction="ltr" writing-mode="lr-tb" unicode-bidi="normal" text-decoration="none" transform="matrix(1 0 0 1 1741.19 3841)">value</text><text fill="#DD7374" fill-opacity="1" font-family="Calibri,Calibri_MSFontService,sans-serif" font-style="normal" font-variant="normal" font-weight="700" font-stretch="normal" font-size="83" text-anchor="start" direction="ltr" writing-mode="lr-tb" unicode-bidi="normal" text-decoration="none" transform="matrix(1 0 0 1 1925.03 3841)">s</text><path d="M841 4047C841 4030.98 853.984 4018 870.001 4018L2184 4018C2200.02 4018 2213 4030.98 2213 4047L2213 4163C2213 4179.02 2200.02 4192 2184 4192L870.001 4192C853.984 4192 841 4179.02 841 4163Z" fill="#595959" fill-rule="evenodd" fill-opacity="1"/><text fill="#FFFFFF" fill-opacity="1" font-family="Courier New,Courier New_MSFontService,sans-serif" font-style="normal" font-variant="normal" font-weight="400" font-stretch="normal" font-size="69" text-anchor="start" direction="ltr" writing-mode="lr-tb" unicode-bidi="normal" text-decoration="none" transform="matrix(1 0 0 1 882.188 4125)">dataframe</text><text fill="#FFFFFF" fill-opacity="1" font-family="Courier New,Courier New_MSFontService,sans-serif" font-style="normal" font-variant="normal" font-weight="400" font-stretch="normal" font-size="69" text-anchor="start" direction="ltr" writing-mode="lr-tb" unicode-bidi="normal" text-decoration="none" transform="matrix(1 0 0 1 1253.44 4125)">[</text><text fill="#FFFFFF" fill-opacity="1" font-family="Courier New,Courier New_MSFontService,sans-serif" font-style="normal" font-variant="normal" font-weight="400" font-stretch="normal" font-size="69" text-anchor="start" direction="ltr" writing-mode="lr-tb" unicode-bidi="normal" text-decoration="none" transform="matrix(1 0 0 1 1294.69 4125)">'feature'</text><text fill="#FFFFFF" fill-opacity="1" font-family="Courier New,Courier New_MSFontService,sans-serif" font-style="normal" font-variant="normal" font-weight="400" font-stretch="normal" font-size="69" text-anchor="start" direction="ltr" writing-mode="lr-tb" unicode-bidi="normal" text-decoration="none" transform="matrix(1 0 0 1 1665.94 4125)">].</text><text fill="#FFFFFF" fill-opacity="1" font-family="Courier New,Courier New_MSFontService,sans-serif" font-style="normal" font-variant="normal" font-weight="400" font-stretch="normal" font-size="69" text-anchor="start" direction="ltr" writing-mode="lr-tb" unicode-bidi="normal" text-decoration="none" transform="matrix(1 0 0 1 1748.44 4125)">nunique</text><text fill="#FFFFFF" fill-opacity="1" font-family="Courier New,Courier New_MSFontService,sans-serif" font-style="normal" font-variant="normal" font-weight="400" font-stretch="normal" font-size="69" text-anchor="start" direction="ltr" writing-mode="lr-tb" unicode-bidi="normal" text-decoration="none" transform="matrix(1 0 0 1 2037.19 4125)">()</text><path d="M841 4289.93C841 4271.74 855.744 4257 873.932 4257L2180.07 4257C2198.26 4257 2213 4271.74 2213 4289.93L2213 4467.07C2213 4485.26 2198.26 4500 2180.07 4500L873.932 4500C855.744 4500 841 4485.26 841 4467.07Z" stroke="#DD7374" stroke-width="10.3125" stroke-linecap="butt" stroke-linejoin="miter" stroke-miterlimit="8" stroke-opacity="1" fill="#FFFFFF" fill-rule="evenodd" fill-opacity="1"/><text fill="#000000" fill-opacity="1" font-family="Calibri,Calibri_MSFontService,sans-serif" font-style="normal" font-variant="normal" font-weight="400" font-stretch="normal" font-size="83" text-anchor="start" direction="ltr" writing-mode="lr-tb" unicode-bidi="normal" text-decoration="none" transform="matrix(1 0 0 1 883.374 4360)">Calculated for </text><text fill="#000000" fill-opacity="1" font-family="Calibri,Calibri_MSFontService,sans-serif" font-style="normal" font-variant="normal" font-weight="700" font-stretch="normal" font-size="83" text-anchor="start" direction="ltr" writing-mode="lr-tb" unicode-bidi="normal" text-decoration="none" transform="matrix(1 0 0 1 1366.96 4360)">categorical</text><text fill="#000000" fill-opacity="1" font-family="Calibri,Calibri_MSFontService,sans-serif" font-style="normal" font-variant="normal" font-weight="400" font-stretch="normal" font-size="83" text-anchor="start" direction="ltr" writing-mode="lr-tb" unicode-bidi="normal" text-decoration="none" transform="matrix(1 0 0 1 1754.73 4360)">data</text></g></g></svg>